<svg xmlns="http://www.w3.org/2000/svg" width="413.999" height="269.789" viewBox="0 0 413.999 269.789"><defs><style>.a{fill:#e6e6e6;}.b{fill:#fff;}.c{fill:#0572c4;}.d{fill:#2f2e41;}.e{fill:#fbbebe;}.f{fill:#ffb8b8;}.g{opacity:0.2;}</style></defs><ellipse class="a" cx="56.658" cy="5.615" rx="56.658" ry="5.615" transform="translate(300.683 258.559)"/><ellipse class="a" cx="20.292" cy="2.808" rx="20.292" ry="2.808" transform="translate(14.8 258.778)"/><rect class="a" width="265.596" height="133.25"/><rect class="b" width="241.205" height="111.569" transform="translate(12.196 10.841)"/><path class="c" d="M26.018,156l-.639-.639,32.39-32.389,10.163,10.163L85.774,115.3l21.907,21.9,37.265-37.265,16.938,16.939,37.039-37.039L219.7,100.617l38.074-38.075.639.639L219.7,101.894,198.923,81.116l-37.039,37.039-16.938-16.938-37.265,37.265L85.774,116.574,67.932,134.416,57.769,124.253Z" transform="translate(-13.503 -33.275)"/><circle class="c" cx="5.42" cy="5.42" r="5.42" transform="translate(180.226 42.459)"/><circle class="c" cx="5.42" cy="5.42" r="5.42" transform="translate(67.302 77.691)"/><circle class="c" cx="5.42" cy="5.42" r="5.42" transform="translate(143.187 78.143)"/><circle class="c" cx="5.42" cy="5.42" r="5.42" transform="translate(90.339 98.469)"/><circle class="c" cx="5.42" cy="5.42" r="5.42" transform="translate(125.119 62.786)"/><circle class="c" cx="5.42" cy="5.42" r="5.42" transform="translate(200.552 62.786)"/><path class="a" d="M218.259,672.735c2.2,8.13,9.733,13.165,9.733,13.165s3.967-8.146,1.768-16.277-9.733-13.165-9.733-13.165S216.059,664.6,218.259,672.735Z" transform="translate(-189.542 -424.951)"/><path class="c" d="M208.771,680.266c6.035,5.875,6.772,14.906,6.772,14.906s-9.048-.494-15.083-6.369-6.772-14.906-6.772-14.906S202.736,674.391,208.771,680.266Z" transform="translate(-176.823 -434.229)"/><path class="d" d="M870.786,251.881l3.457,34.185h28.449L901.324,234.1c0-11.184-7.732-20.967-18.916-20.967s-18.46,9.327-18.46,20.511l-1.823,52.417h4.638Z" transform="translate(-532.463 -189.083)"/><path class="e" d="M912.992,679.013s-1.228,7.777-3.274,9,10.642,4.093,10.642,4.093l2.047-12.279Z" transform="translate(-557.665 -436.951)"/><path class="d" d="M925.132,489.211l4.5,5.321-2.047,18.419-1.637,36.428s3.274,31.516,0,32.335-18.009.409-17.6-1.637.818-3.684,1.637-6.549-.819-13.1-.819-13.1l2.047-11.46-7.367-49.525Z" transform="translate(-554.662 -335.967)"/><path class="d" d="M895.8,695.218s-4.5-.819-4.911,0-8.186,9.414-9.414,9.414-10.233,8.186-.819,8.6,24.967-6.958,24.967-6.958-2.289-10.415-2.168-9.915S895.8,697.265,895.8,695.218Z" transform="translate(-540.063 -445.379)"/><path class="e" d="M907.347,647.951s11.46,12.688,11.87,13.916,6.549,0,6.549,0l2.456-8.186-2.046-2.865-11.46-9.414Z" transform="translate(-556.523 -416.94)"/><path class="d" d="M935.586,665.652l-5.935,5.586s7.572,11.6,7.572,12.832.409,11.46,4.5,9.823,4.5-18.009,4.5-18.009-.409-16.781-2.865-18.009-7.838-.84-7.838-.84S938.86,665.242,935.586,665.652Z" transform="translate(-568.39 -425.226)"/><path class="d" d="M852.736,409.44s-2.046,6.549-2.456,8.186-2.865,6.14-2.865,13.1.819,15.144,0,15.963-13.916,46.66-8.186,51.572,24.558,21.284,25.786,23.33,1.637,6.958,4.093,6.14,11.87-9,12.279-10.642-5.321-4.5-5.321-4.5-11.46-16.781-14.326-16.372-2.456-2.047-2.047-3.274,1.228-2.047,0-2.047-.409-3.274,0-4.912,9.823-23.74,9.823-23.74l24.967-11.051s-1.228-29.879-10.232-38.065l-2.047-4.912S859.285,406.575,852.736,409.44Z" transform="translate(-519.512 -292.624)"/><path class="f" d="M878.108,273.169s2.046,14.326-2.865,15.144-9,.409-9,.819,12.279,13.1,12.279,13.1l11.46-.819L900.21,290.36s-9.414-1.637-9.414-7.367-.409-9.823-.409-9.823Z" transform="translate(-534.651 -221.022)"/><circle class="f" cx="12.688" cy="12.688" r="12.688" transform="translate(337.113 32.705)"/><path class="a" d="M865.287,303.3s-19.814,1.861-21.042,7.182,8.186,38.474,9.414,41.339a9.053,9.053,0,0,1,.819,4.912,16.2,16.2,0,0,1,13.1-2.865c7.777,1.637,18.828.819,18.828.819s3.684-15.144,4.5-16.781S895,327.268,895,324.812s4.912-12.688,4.912-12.688-2.456-7.367-11.46-6.958c0,0-3.928-1.758-5.034-.47s-7.245,7.019-15.022,4.563S865.287,303.3,865.287,303.3Z" transform="translate(-522.891 -237.056)"/><path class="a" d="M946.707,317.777l7.777,2.047s5.73,20.874,6.14,21.284a10.416,10.416,0,0,1,.819,2.865s0,.409.819,1.637,2.047.409,1.228,2.047-2.046.819-1.228,2.456.409,6.14.409,6.14-2.047-7.777-9.414-5.73l-4.912-22.1Z" transform="translate(-577.464 -244.756)"/><path class="c" d="M758.251,158.367l-.028.094-13.482,42.471-8.849-1.965-9.57-2.124,13.51-43.8Z" transform="translate(-386.438 -81.428)"/><path class="a" d="M841.906,317.777l-7.777,2.047s-5.73,20.874-6.14,21.284a10.41,10.41,0,0,0-.819,2.865s0,.409-.819,1.637-2.046.409-1.228,2.047,2.047.819,1.228,2.456-.409,6.14-.409,6.14,2.046-7.777,9.414-5.73l4.912-22.1Z" transform="translate(-512.633 -244.756)"/><path class="f" d="M829.42,377.422l-2.557,4.273s-1.127,8.006,4.6,8.006,13.916-7.777,13.916-7.777,4.093-1.637,6.549-1.228,15.963,0,10.233-6.958-15.553,0-15.553,0l-10.232,4.912-5.321-2.865Z" transform="translate(-513.654 -272.885)"/><path class="a" d="M832.771,372.387l4.093,6.549s-9.414,1.228-10.232,3.274,3.684-10.642,3.684-10.642Z" transform="translate(-513.525 -273.376)"/><path class="d" d="M878.953,236.221c8.243-4.444,11.629-4.256,21.878,0l2.735-6.663a4.737,4.737,0,0,0-4.732-4.732h-18.34a4.737,4.737,0,0,0-4.732,4.732Z" transform="translate(-539.718 -195.302)"/><path class="g" d="M769.1,161.653l-13.482,42.471-8.849-1.965,13.3-43.112Z" transform="translate(-397.319 -84.62)"/><path class="c" d="M765.831,159.044l-13.507,43.8,18.419,4.093L784.25,164.37Z" transform="translate(-400.272 -84.619)"/><path class="f" d="M936.746,377.422,939.3,381.7s1.127,8.006-4.6,8.006-13.916-7.777-13.916-7.777-4.093-1.637-6.549-1.228-15.963,0-10.233-6.958,15.553,0,15.553,0l10.232,4.912,5.321-2.865Z" transform="translate(-553.997 -272.885)"/><path class="a" d="M963.482,372.387l-4.093,6.549s9.414,1.228,10.233,3.274-3.684-10.642-3.684-10.642Z" transform="translate(-584.212 -273.376)"/></svg>