<svg xmlns="http://www.w3.org/2000/svg" width="431.273" height="311.41" viewBox="0 0 431.273 311.41"><defs><style>.a{fill:#3f3d56;}.b{fill:#2f2e41;}.c{fill:#fbbebe;}.d{fill:#0572c4;}.e{opacity:0.4;}.f{fill:#575a89;}.g{fill:#0378a6;}.h{fill:#52c4f8;}.i{fill:#f2f2f2;}.j{fill:#e6e6e6;}</style></defs><g transform="translate(0.001 -0.001)"><rect class="a" width="3.839" height="151.64" transform="translate(374.486 151.686)"/><path class="a" d="M990.294,339.6c.244,53.025-37.061,96.183-37.061,96.183s-37.7-42.812-37.946-95.837,37.061-96.183,37.061-96.183S990.047,286.573,990.294,339.6Z" transform="translate(-576.539 -168.587)"/><rect class="a" width="1.974" height="77.992" transform="translate(299.591 223.035)"/><path class="a" d="M806.513,570.94c.126,27.272-19.061,49.469-19.061,49.469s-19.391-22.019-19.517-49.291S787,521.649,787,521.649,806.387,543.668,806.513,570.94Z" transform="translate(-486.725 -337.966)"/><ellipse class="a" cx="53.495" cy="8.2" rx="53.495" ry="8.2" transform="translate(286.988 295.011)"/><path class="b" d="M876.443,325.768c-4.532-7.658-13.5-8.015-13.5-8.015s-8.738-1.117-14.343,10.546c-5.224,10.871-12.435,21.367-1.161,23.912l2.036-6.338,1.261,6.81a44.106,44.106,0,0,0,4.824.082c12.073-.39,23.571.114,23.2-4.218C878.271,342.787,880.8,333.136,876.443,325.768Z" transform="translate(-531.547 -213.669)"/><path class="c" d="M889.234,370.382s5.857,8.2,2.343,14.838,8.2,13.667,8.2,13.667l8.59-18.743s-10.152-6.638-7.419-12.886Z" transform="translate(-560.661 -243.861)"/><circle class="c" cx="10.152" cy="10.152" r="10.152" transform="translate(322.326 109.73)"/><path class="c" d="M809.255,354.19l8.484-10.947s2.987-11.474,7.314-10.892-1.709,13.76-1.709,13.76l-8.43,12.117Z" transform="translate(-511.912 -222.571)"/><path class="c" d="M871.469,708.186l2.733,14.448,5.857,1.562L878.5,707.015Z" transform="translate(-531.181 -430.942)"/><path class="c" d="M1022.47,665.139l10.543,14.448,4.3,1.952,3.514-5.857-10.543-13.667Z" transform="translate(-623.22 -403.514)"/><path class="d" d="M881.223,407.877l-6.514-8.575s-12.62,2.327-13.791,3.5,3.124,22.648,3.124,22.648.781,5.857,4.3,8.981l3.514,2.343,28.9-5.857,1.086-12.857a33.741,33.741,0,0,0-8.9-25.8h0l-5.028.687Z" transform="translate(-543.278 -259.099)"/><path class="d" d="M820.736,394.439l-1.952-.781-8.981-.781s-3.124-.781-2.343-2.343,1.562-1.952,0-2.343-1.952-.781-1.562-1.952,2.733-3.514,2.733-3.514l-6.638-5.467s-.359.254-.94.724c-3.3,2.668-13.724,12.3-6.089,21.923,8.981,11.324,19.524,17.962,28.114,15.619Z" transform="translate(-501.534 -249.957)"/><path class="b" d="M883.2,495.163v5.467s-3.514,6.638-2.343,12.886,1.562,9.371,1.562,9.371a53.309,53.309,0,0,0,2.733,15.619c2.733,7.81-6.248,58.962,5.076,59.743s17.571,1.562,21.086-2.343-5.857-71.067-5.857-71.067,32.019,66.771,38.657,64.038,23.429-8.981,21.476-12.5-51.152-81.609-51.152-81.609l-1.562-3.514Z" transform="translate(-555.411 -319.442)"/><path class="b" d="M919.934,791.208s-6.248-.39-6.248,1.562-3.124,8.59-3.124,8.59-2.343,7.81,3.9,7.029,10.152-7.81,10.152-7.81l-1.562-7.419Z" transform="translate(-573.398 -502.25)"/><path class="b" d="M1094.28,750.133s-5.467-3.514-5.076-1.171.781,8.591,3.514,8.981,10.933,2.733,11.324,3.514,9.762,3.9,9.762-1.171-5.857-8.981-5.857-8.981l-6.638-5.076s-4.3-.39-5.076,2.343S1094.28,750.133,1094.28,750.133Z" transform="translate(-682.532 -474.841)"/><circle class="b" cx="6.483" cy="6.483" r="6.483" transform="translate(326.01 97.639)"/><path class="b" d="M878.791,303.408a6.484,6.484,0,0,1,5.8-6.447,6.563,6.563,0,0,0-.681-.036,6.483,6.483,0,1,0,0,12.967,6.561,6.561,0,0,0,.682-.036,6.484,6.484,0,0,1-5.8-6.448Z" transform="translate(-553.464 -200.991)"/><path class="b" d="M841.261,277.947l-8.858-4.64-12.234,1.9-2.531,11.179,6.3-.242,1.76-4.107v4.039l2.907-.112,1.687-6.539,1.055,6.96,10.335-.211Z" transform="translate(-498.37 -166.587)"/><path class="c" d="M886,492.607l-13.662.369s-11.657,2.268-11-2.437,12.026-3.059,12.026-3.059l12.448-1.9Z" transform="translate(-543.64 -315.982)"/><path class="d" d="M929.59,390.51a2.916,2.916,0,0,1,3.216,2c2.675,8.428,10.914,36.632,2.728,40.5-9.642,4.557-16.679,4.357-16.679,4.357l-3.766-9.273,3.429-3.218,3.661-23.536,1.754-9.977Z" transform="translate(-576.419 -258.014)"/><path class="e" d="M874.2,379.515l-1.562,15.619-13.667,5.857,15.229-3.514Z" transform="translate(-523.562 -231.323)"/><path class="a" d="M747.916,298.7h0a18.29,18.29,0,0,1,10.681,7.759l1.277,1.978.064.082,22.407,6.557a1.633,1.633,0,0,1,1.117,2l-1.74,6.378a1.633,1.633,0,0,1-2.016,1.143l-22.413-6.265h0l-2.251.851a20.115,20.115,0,0,1-12.933.44h0Z" transform="translate(-470.985 -202.077)"/><ellipse class="f" cx="1.368" cy="2.566" rx="1.368" ry="2.566" transform="translate(295.219 114.997) rotate(-73.69)"/><circle class="a" cx="0.941" cy="0.941" r="0.941" transform="translate(298.444 113.914)"/><ellipse class="g" cx="10.969" cy="4.96" rx="10.969" ry="4.96" transform="translate(265.985 116.084) rotate(-72.054)"/><path class="e" d="M748,310.622c1.8-5.552,1.311-10.727-1.059-11.853a2.3,2.3,0,0,1,.42.093c2.606.845,3.2,6.2,1.335,11.964s-5.5,9.749-8.1,8.9a2.284,2.284,0,0,1-.276-.111C742.885,319.945,746.233,316.081,748,310.622Z" transform="translate(-469.895 -202.116)"/><path class="h" d="M324.991,147.891l-50.854-39.448a336.568,336.568,0,0,1-25.855-22.408c-14.5-13.818-34.176-24.866-57.088-30.748C135.526,41,91.427,66.336,71.369,103.542c-30.65,56.855-54.14,149.115,81.763,100C182.854,192.8,212.939,191.66,235.751,186l82.6-17.031Z" transform="translate(-47.766 -51.242)"/><circle class="i" cx="2.733" cy="2.733" r="2.733" transform="translate(121.816 24.801)"/><path class="i" d="M452.511,85.584H451.8v-.711h-.139v.711h-.711v.139h.711v.711h.139v-.711h.711Z" transform="translate(-274.864 -51.732)"/><path class="i" d="M635.511,237.584H634.8v-.711h-.139v.711h-.711v.139h.711v.711h.139v-.711h.711Z" transform="translate(-386.407 -144.38)"/><path class="i" d="M622.511,284.584H621.8v-.711h-.139v.711h-.711v.139h.711v.711h.139v-.711h.711Z" transform="translate(-378.483 -173.027)"/><path class="i" d="M63.511,324.584H62.8v-.711h-.14v.711h-.711v.139h.711v.711h.14v-.711h.711Z" transform="translate(-37.76 -197.408)"/><path class="i" d="M143.511,106.584H142.8v-.711h-.139v.711h-.711v.139h.711v.711h.139v-.711h.711Z" transform="translate(-86.521 -64.532)"/><path class="i" d="M454.511,292.584H453.8v-.711h-.139v.711h-.711v.139h.711v.711h.139v-.711h.711Z" transform="translate(-276.083 -177.903)"/><path class="i" d="M263.511,42.584H262.8v-.711h-.139v.711h-.711v.139h.711v.711h.139v-.711h.711Z" transform="translate(-159.664 -25.523)"/><path class="j" d="M313.031,238.915l-.886.137c.277,1.773.5,3.585.656,5.377l.894-.078C313.535,242.535,313.313,240.707,313.031,238.915Z" transform="translate(-208.911 -165.633)"/><path class="j" d="M306.864,211.575l-.859.262c.519,1.718.984,3.479,1.378,5.232l.879-.2C307.86,215.1,307.387,213.317,306.864,211.575Z" transform="translate(-205.169 -148.969)"/><path class="j" d="M297.021,185.355l-.816.375c.75,1.636,1.453,3.315,2.089,4.994l.84-.316C298.489,188.709,297.783,187.007,297.021,185.355Z" transform="translate(-199.195 -132.987)"/><path class="j" d="M283.713,160.775l-.758.48c.964,1.515,1.89,3.085,2.749,4.658l.789-.43C285.626,163.891,284.689,162.306,283.713,160.775Z" transform="translate(-191.119 -118.005)"/><path class="j" d="M267.168,138.245l-.683.582c1.164,1.367,2.3,2.8,3.366,4.241l.719-.535C269.492,141.072,268.348,139.627,267.168,138.245Z" transform="translate(-181.08 -104.273)"/><path class="j" d="M247.722,118.185l-.6.668c1.343,1.2,2.659,2.46,3.913,3.745l.644-.629C250.413,120.668,249.081,119.4,247.722,118.185Z" transform="translate(-169.28 -92.046)"/><path class="j" d="M225.749,100.965l-.5.742c1.492,1,2.968,2.073,4.385,3.178l.554-.707C228.748,103.062,227.256,101.98,225.749,100.965Z" transform="translate(-155.944 -81.55)"/><path class="j" d="M206.4,89.006v1.015c.933.488,1.859,1,2.765,1.523l.449-.777Q208.037,89.853,206.4,89.006Z" transform="translate(-144.46 -74.26)"/><path class="j" d="M314.57,267.2l.9-.016c.016.906.018,1.818,0,2.708l-.9-.014C314.587,268.993,314.586,268.092,314.57,267.2Z" transform="translate(-210.389 -182.861)"/><path class="j" d="M178.031,435.915l-.886.137c.277,1.773.5,3.585.656,5.377l.894-.078C178.535,439.535,178.313,437.707,178.031,435.915Z" transform="translate(-126.626 -285.709)"/><path class="j" d="M171.864,408.575l-.859.262c.519,1.718.984,3.479,1.378,5.232l.879-.2C172.86,412.1,172.387,410.317,171.864,408.575Z" transform="translate(-122.883 -269.045)"/><path class="j" d="M162.021,382.355l-.816.375c.75,1.636,1.453,3.315,2.089,4.994l.84-.316C163.489,385.709,162.783,384.007,162.021,382.355Z" transform="translate(-116.91 -253.063)"/><path class="j" d="M148.713,357.775l-.758.48c.964,1.515,1.89,3.085,2.749,4.658l.789-.43C150.626,360.891,149.689,359.306,148.713,357.775Z" transform="translate(-108.834 -238.081)"/><path class="j" d="M132.168,335.245l-.683.582c1.164,1.367,2.3,2.8,3.366,4.241l.718-.535C134.492,338.072,133.348,336.627,132.168,335.245Z" transform="translate(-98.795 -224.349)"/><path class="j" d="M112.722,315.185l-.6.668c1.343,1.2,2.659,2.46,3.913,3.745l.644-.629C115.413,317.668,114.081,316.4,112.722,315.185Z" transform="translate(-86.994 -212.122)"/><path class="j" d="M90.749,297.965l-.5.742c1.492,1,2.968,2.073,4.385,3.178l.554-.707C93.747,300.062,92.256,298.98,90.749,297.965Z" transform="translate(-73.658 -201.626)"/><path class="j" d="M71.4,286.005v1.015c.933.488,1.859,1,2.765,1.523l.449-.777Q73.037,286.852,71.4,286.005Z" transform="translate(-62.175 -194.336)"/><path class="j" d="M179.57,464.2l.9-.016c.016.906.018,1.817,0,2.708l-.9-.014C179.587,465.993,179.586,465.092,179.57,464.2Z" transform="translate(-128.104 -302.937)"/><path class="j" d="M640.031,336.915l-.886.137c.277,1.773.5,3.585.656,5.377l.894-.078C640.535,340.535,640.313,338.707,640.031,336.915Z" transform="translate(-408.225 -225.367)"/><path class="j" d="M633.864,309.575l-.859.262c.519,1.718.984,3.479,1.378,5.232l.879-.2C634.86,313.1,634.387,311.317,633.864,309.575Z" transform="translate(-404.483 -208.702)"/><path class="j" d="M624.021,283.355l-.816.375c.75,1.636,1.453,3.315,2.089,4.994l.84-.316C625.489,286.709,624.783,285.007,624.021,283.355Z" transform="translate(-398.51 -192.721)"/><path class="j" d="M610.713,258.775l-.758.48c.964,1.515,1.89,3.085,2.749,4.658l.789-.43C612.626,261.891,611.689,260.306,610.713,258.775Z" transform="translate(-390.434 -177.738)"/><path class="j" d="M594.168,236.245l-.683.582c1.164,1.367,2.3,2.8,3.366,4.241l.719-.535C596.492,239.072,595.348,237.627,594.168,236.245Z" transform="translate(-380.395 -164.006)"/><path class="j" d="M574.722,216.185l-.6.668c1.343,1.2,2.659,2.46,3.913,3.745l.644-.629C577.413,218.668,576.081,217.4,574.722,216.185Z" transform="translate(-368.594 -151.779)"/><path class="j" d="M552.749,198.965l-.5.742c1.492,1,2.968,2.073,4.385,3.178l.555-.707C555.748,201.062,554.256,199.98,552.749,198.965Z" transform="translate(-355.258 -141.283)"/><path class="j" d="M533.405,187.005v1.015c.933.488,1.859,1,2.765,1.523l.449-.777Q535.037,187.852,533.405,187.005Z" transform="translate(-343.774 -133.993)"/><path class="j" d="M641.57,365.2l.9-.016c.016.906.018,1.818,0,2.708l-.9-.014C641.587,366.993,641.586,366.092,641.57,365.2Z" transform="translate(-409.704 -242.594)"/><path class="i" d="M147.026,198.861h-.662V198.2h-.129v.662h-.662v.129h.662v.662h.129v-.662h.662Z" transform="translate(-88.73 -120.807)"/><path class="i" d="M127.485,301.218h-.662v-.662h-.129v.662h-.662v.129h.662v.662h.129v-.662h.662Z" transform="translate(-76.82 -183.196)"/><path class="i" d="M70.148,390.926h-.662v-.662h-.129v.662h-.662v.129h.662v.662h.129v-.662h.662Z" transform="translate(-41.871 -237.875)"/><path class="i" d="M266.884,212.785a47.955,47.955,0,1,1,22.25,17.865,15.512,15.512,0,1,1-22.25-17.865Z" transform="translate(-176.325 -104.161)"/><path class="d" d="M353.246,190.679c10.993,0,18.557,6.1,18.557,14.863,0,5.8-2.814,9.821-8.238,13.016-5.1,2.961-6.831,5.13-6.831,8.883h0a2.316,2.316,0,0,1-2.316,2.316H348.8a2.316,2.316,0,0,1-2.315-2.235l-.01-.286c-.5-6.039,1.612-9.792,6.919-12.9,4.954-2.961,7.036-4.837,7.036-8.472s-3.518-6.3-7.886-6.3a7.512,7.512,0,0,0-7.153,4.255,5.175,5.175,0,0,1-4.729,2.957h0a5.087,5.087,0,0,1-4.543-7.415C338.934,194.034,344.878,190.679,353.246,190.679Zm-7.71,50.248a6.293,6.293,0,1,1,6.274,6.039,6.14,6.14,0,0,1-6.274-6.039Z" transform="translate(-223.167 -136.232)"/></g></svg>