<svg xmlns="http://www.w3.org/2000/svg" width="247.151" height="264.267" viewBox="0 0 247.151 264.267"><defs><style>.a{fill:#f2f2f2;}.b,.d{fill:#3f3d56;}.c{opacity:0.1;}.d,.e{stroke:#3f3d56;}.d,.e,.j,.l{stroke-miterlimit:10;}.d,.e,.j{stroke-width:2px;}.e,.j,.l{fill:none;}.f{fill:#ff6584;}.g{fill:#2f2e41;}.h{fill:#fff;}.i{fill:#0572c4;}.j{stroke:#0378a6;}.k{fill:#ffb9b9;}.l{stroke:#ffb9b9;}.m{fill:#0378a6;}</style></defs><circle class="a" cx="114.859" cy="114.859" r="114.859" transform="translate(17.326 0)"/><g transform="translate(7.944 213.156)"><path class="b" d="M489.77,706.15c0,2.358-53.525,15.138-119.552,15.138s-119.552-12.78-119.552-15.138,53.524,1.55,119.551,1.55S489.77,703.792,489.77,706.15Z" transform="translate(-250.665 -701.88)"/><path class="c" d="M489.77,706.15c0,2.358-53.525,15.138-119.552,15.138s-119.552-12.78-119.552-15.138,53.524,1.55,119.551,1.55S489.77,703.792,489.77,706.15Z" transform="translate(-250.665 -701.88)"/><ellipse class="b" cx="119.552" cy="4.27" rx="119.552" ry="4.27" transform="translate(0 0)"/></g><line class="d" y1="38.428" transform="translate(241.717 177.834)"/><circle class="b" cx="5.434" cy="5.434" r="5.434" transform="translate(236.283 172.4)"/><path class="b" d="M923.183,629.477s-.776-16.7-16.691-14.756" transform="translate(-681.467 -427.959)"/><line class="d" y1="126.445" transform="translate(22.125 92.681)"/><circle class="b" cx="5.434" cy="5.434" r="5.434" transform="translate(16.691 87.187)"/><circle class="b" cx="5.434" cy="5.434" r="5.434" transform="translate(0 179.922)"/><path class="b" d="M259.773,384.347s-.776-16.7-16.691-14.756" transform="translate(-237.648 -263.969)"/><path class="b" d="M259.773,527.347s-.776-16.7-16.691-14.756" transform="translate(-237.648 -359.635)"/><path class="e" d="M259.773,643.069s3.493-30.723-16.691-32.276" transform="translate(-237.648 -425.437)"/><circle class="b" cx="5.434" cy="5.434" r="5.434" transform="translate(33.384 179.922)"/><path class="e" d="M293.047,643.069s-3.493-30.723,16.691-32.276" transform="translate(-270.92 -425.437)"/><circle class="b" cx="5.434" cy="5.434" r="5.434" transform="translate(33.715 128.948)"/><path class="e" d="M294.047,489.069s-3.493-30.723,16.691-32.276" transform="translate(-271.589 -322.411)"/><line class="d" y1="76.855" transform="translate(199.92 138.63)"/><circle class="b" cx="5.434" cy="5.434" r="5.434" transform="translate(194.485 133.196)"/><path class="b" d="M830.644,506.347s.776-16.7,16.691-14.756" transform="translate(-630.724 -345.586)"/><path class="e" d="M830.177,632.069s-3.493-30.723,16.691-32.276" transform="translate(-630.257 -418.078)"/><circle class="b" cx="5.434" cy="5.434" r="5.434" transform="translate(211.176 176.281)"/><circle class="f" cx="21.184" cy="21.184" r="21.184" transform="translate(172.237 37.735)"/><circle class="g" cx="26.149" cy="26.149" r="26.149" transform="translate(132.316 153.896)"/><rect class="g" width="7.944" height="14.233" transform="translate(170.382 214.801) rotate(180)"/><rect class="g" width="7.944" height="14.233" transform="translate(154.494 214.801) rotate(180)"/><ellipse class="g" cx="6.62" cy="2.483" rx="6.62" ry="2.483" transform="translate(141.893 217.452) rotate(-30)"/><ellipse class="g" cx="6.62" cy="2.483" rx="6.62" ry="2.483" transform="translate(157.45 217.452) rotate(-30)"/><circle class="h" cx="8.937" cy="8.937" r="8.937" transform="translate(148.867 164.488)"/><circle class="b" cx="2.979" cy="2.979" r="2.979" transform="translate(151.781 166.64)"/><path class="i" d="M704.881,477.1c2.112-9.456-4.638-19.011-15.075-21.341s-20.61,3.446-22.721,12.9,4.806,12.944,15.243,15.274S702.77,486.559,704.881,477.1Z" transform="translate(-521.05 -321.376)"/><ellipse class="g" cx="4.105" cy="13.075" rx="4.105" ry="13.075" transform="translate(121.92 169.686) rotate(-66.829)"/><ellipse class="g" cx="4.105" cy="13.075" rx="4.105" ry="13.075" transform="translate(170.908 187.23) rotate(-66.829)"/><path class="h" d="M697.128,621.22a5.958,5.958,0,0,1-11.916,0c0-3.291,2.668-3.972,5.958-3.972S697.128,617.93,697.128,621.22Z" transform="translate(-533.431 -429.755)"/><line class="j" y1="38.428" transform="translate(127.299 133.81)"/><circle class="f" cx="5.434" cy="5.434" r="5.434" transform="translate(121.865 128.376)"/><path class="i" d="M577.514,496.477s-.776-16.7-16.691-14.756" transform="translate(-450.216 -338.983)"/><path class="g" d="M414.751,446.181l2.106,4.965h1.866l-2.648-12.578c0-8.073-3.9-14.9-11.97-14.9h0a10.207,10.207,0,0,0-10.2,10.21v12.338a4.93,4.93,0,0,0,4.93,4.93H413.3Z" transform="translate(-338.543 -300.254)"/><path class="g" d="M429.338,640.669s27.473-3.31,30.783,2.648.993,10.923-3.31,13.9-28.135,16.55-28.135,16.55l-1.986,3.31-4.3-.662-4.3-3.972,1.986-3.641s16.55-9.93,16.881-12.578c0,0-15.226,6.951-16.881,5.627s-20.191-7.613-17.212-11.254,10.592-8.937,10.592-8.937Z" transform="translate(-344.321 -444.81)"/><path class="c" d="M429.338,640.669s27.473-3.31,30.783,2.648.993,10.923-3.31,13.9-28.135,16.55-28.135,16.55l-1.986,3.31-4.3-.662-4.3-3.972,1.986-3.641s16.55-9.93,16.881-12.578c0,0-15.226,6.951-16.881,5.627s-20.191-7.613-17.212-11.254,10.592-8.937,10.592-8.937Z" transform="translate(-344.321 -444.81)"/><path class="g" d="M440.356,729.448s4.965-.993,3.972,2.317-1.655,9.93,0,11.585,6.951,8.937,1.655,9.6-10.923-5.958-10.923-5.958-3.641-10.592-6.289-11.585-5.3-4.965-3.972-5.958,9.268-7.282,9.93-6.951.331,3.972.331,3.972S437.708,730.772,440.356,729.448Z" transform="translate(-358.98 -500.157)"/><path class="k" d="M468.659,490.531l12.247,8.606s9.268-9.6,9.268-15.226,4.965-16.219,7.282-11.916-2.648,14.564-2.648,14.564L485.54,508.4s-5.3.993-8.275-1.324-11.254-6.951-11.254-6.951Z" transform="translate(-386.786 -331.91)"/><circle class="k" cx="9.268" cy="9.268" r="9.268" transform="translate(60.523 125.686)"/><path class="k" d="M412.066,475.346s-3.31,8.606-1.986,10.592,2.979,1.986,4.3,2.648c.662.331,7.613,2.979,7.613,4.965a7.9,7.9,0,0,1-.993,3.641l-.993,5.627-8.275,5.3L400.809,506.8l-8.275-4.634s-1.324-12.247,2.317-14.233,7.944-6.62,7.613-8.275-.662-5.627-.662-5.627Z" transform="translate(-337.475 -333.937)"/><path class="i" d="M430.456,533.332s-4.965,4.965-4.965,5.627,3.31,3.641.993,7.613-2.317,13.9-2.317,13.9l-7.944,1.655-14.9-1.324-2.317-22.839s5.958.993,7.282,1.986,4.965-1.324,7.613-1.324a101.514,101.514,0,0,0,10.261-1.324l-.662-2.648,2.648-4.634Z" transform="translate(-341.964 -371.401)"/><path class="l" d="M497.511,646.522" transform="translate(-407.86 -449.339)"/><path class="g" d="M408.41,629.3s33.431-14.9,36.079-5.3,2.979,32.769,2.979,32.769,1.655,15.888,3.641,17.543,0,6.62,0,6.62l-4.965,1.655L441.51,680.6l-1.986-5.3s-.662-11.916-3.31-17.874-2.648-19.86-2.317-20.522c0,0-12.909,15.888-25.487,14.9S394.01,648,394.01,648,400.135,629.3,408.41,629.3Z" transform="translate(-338.619 -432.119)"/><path class="g" d="M536.277,782.694s1.324-4.634,4.3-.993,16.55,9.268,16.881,9.93,6.289,4.3-.662,9.268-16.219,0-16.219,0-7.944-2.648-9.93-2.317-5.958-1.655-6.289-3.31.451-16.2,2.212-14.722,3.749,5.45,3.749,5.45S536.939,787.659,536.277,782.694Z" transform="translate(-425.773 -538.84)"/><path class="g" d="M411.425,612.306s1.821-.166,1.49,4.138c0,0-11.42,3.475-13.406,6.455s-10.592,11.916-11.916,18.205c0,0-9.6-2.317-4.3-18.867l6.227-13.5S393.22,616.279,411.425,612.306Z" transform="translate(-330.38 -424.061)"/><path class="k" d="M412.923,558.326l-11.242-4.9s-5.3-10.923-5.3-16.219a81.6,81.6,0,0,0-.7-9.11,11.76,11.76,0,0,1,3.828-10.309,6.083,6.083,0,0,1,3.826-1.766s3.972,7.282,3.31,13.9.993,16.55.993,16.55l14.957,8.005" transform="translate(-339.669 -362.035)"/><path class="c" d="M414.549,587.337l-11.242-4.9s-5.3-10.923-5.3-16.219c0-2.759,11.585-10.923,10.923-4.3a64.9,64.9,0,0,0,.331,13.571l14.957,8.005" transform="translate(-341.295 -391.046)"/><path class="m" d="M403.244,557.676l-1.055,4.469-5.9,2.813h-4.965l-2.317-10.592s4.091-.865,6.183.229,7,1.357,7,1.357Z" transform="translate(-335.274 -387.47)"/><path class="g" d="M403.308,424.115a38.98,38.98,0,0,0-6.677-.443A11.43,11.43,0,0,0,385.2,435.1l-4.3,16.042h8.376l1.554-5.958,2.207,5.958h4.216l.362-3.58,1.427,3.58h4.7c-3.517-7.959-5.389-15.213-.767-19.691,3.121.425,5.752-.411,6.181-2.1C409.646,427.4,407.029,425.059,403.308,424.115Z" transform="translate(-329.846 -300.254)"/></svg>