<svg xmlns="http://www.w3.org/2000/svg" width="286.826" height="231.186" viewBox="0 0 286.826 231.186"><defs><style>.a{fill:#e6e6e6;}.b{fill:#ccc;}.c{fill:#3f3d56;}.d{fill:#0572c4;}.e{fill:#2f2e41;}.f{fill:#d0cde1;}.g{fill:#f2cea2;}.h{opacity:0.1;}.i{fill:#ffb8b8;}</style></defs><circle class="a" cx="32.541" cy="32.541" r="32.541" transform="translate(48.198 88.649)"/><path class="b" d="M381.592,506.937l8,4.96V478.368l-8.973-5.56a3.481,3.481,0,0,1-1.519-2.022h0a3.48,3.48,0,0,1,2.486.46l8,4.96v-13a30.754,30.754,0,0,1,.919-7.459,30.765,30.765,0,0,1,.918,7.459v21.221l11.809-7.318a5.787,5.787,0,0,1,3.143-.867,5.787,5.787,0,0,1-2.176,2.429l-12.777,7.917v79.294H389.6V514.058l-8.972-5.56a3.481,3.481,0,0,1-1.519-2.022h0a3.481,3.481,0,0,1,2.483.461Z" transform="translate(-309.645 -338.228)"/><circle class="a" cx="32.541" cy="32.541" r="32.541" transform="translate(0 91.412)"/><path class="b" d="M245.823,515.19l-8,4.96V486.621l8.972-5.56a3.481,3.481,0,0,0,1.519-2.022h0a3.481,3.481,0,0,0-2.486.46l-8,4.96v-13A30.762,30.762,0,0,0,236.9,464a30.76,30.76,0,0,0-.918,7.461v21.221l-11.809-7.318a5.787,5.787,0,0,0-3.143-.867,5.787,5.787,0,0,0,2.176,2.429l12.777,7.917v76.706h1.837V522.311l8.972-5.56a3.48,3.48,0,0,0,1.519-2.022h0a3.48,3.48,0,0,0-2.488.461Z" transform="translate(-204.49 -343.718)"/><circle class="a" cx="56.028" cy="56.028" r="56.028" transform="translate(0.152 0)"/><path class="b" d="M299.828,341.325l-13.782,8.54V292.136l15.448-9.573a5.992,5.992,0,0,0,2.615-3.481h0a5.992,5.992,0,0,0-4.281.792l-13.782,8.54V266.03a52.968,52.968,0,0,0-1.581-12.848,52.967,52.967,0,0,0-1.581,12.848v36.537l-20.332-12.6a9.964,9.964,0,0,0-5.412-1.493,9.964,9.964,0,0,0,3.746,4.181l22,13.632V431.433h3.163V353.586l15.448-9.572a5.992,5.992,0,0,0,2.615-3.481h0a5.992,5.992,0,0,0-4.281.792Z" transform="translate(-228.511 -203.482)"/><rect class="c" width="264.48" height="0.67" transform="translate(22.346 227.654)"/><rect class="d" width="15.157" height="15.157" transform="translate(205.586 108.662) rotate(-30)"/><path class="e" d="M809.691,433.717l-7.914-13.707,13.707-7.913,7.916,13.7Zm-7-13.461,7.244,12.547,12.547-7.244-7.244-12.547Z" transform="translate(-590.813 -309.193)"/><circle class="f" cx="6.361" cy="6.361" r="6.361" transform="translate(200.237 148.634)"/><path class="e" d="M789.431,561.083a6.7,6.7,0,1,1,6.7-6.7A6.7,6.7,0,0,1,789.431,561.083Zm0-12.722a6.026,6.026,0,1,0,6.026,6.026,6.026,6.026,0,0,0-6.026-6.026Z" transform="translate(-578.145 -399.393)"/><path class="d" d="M780.543,664.211h-61.6a2.849,2.849,0,0,1-2.846-2.846V604.118a2.849,2.849,0,0,1,2.846-2.846h61.6a2.849,2.849,0,0,1,2.846,2.846v57.248a2.849,2.849,0,0,1-2.846,2.845Z" transform="translate(-533.817 -435.035)"/><path class="g" d="M806.646,662.842h-8.7A2.849,2.849,0,0,1,795.1,660V599.038a2.849,2.849,0,0,1,2.846-2.846h8.7a2.849,2.849,0,0,1,2.846,2.846V660a2.849,2.849,0,0,1-2.846,2.842Z" transform="translate(-586.368 -431.656)"/><path class="g" d="M926.915,562.167c-.36,5.906-8.337,10.225-8.337,10.225s-7.394-5.256-7.034-11.162,8.338-10.225,8.338-10.225S927.275,556.261,926.915,562.167Z" transform="translate(-663.823 -401.597)"/><path class="g" d="M938.194,608.812c-5.907-.341-10.251-8.3-10.251-8.3s5.233-7.411,11.14-7.069,10.251,8.3,10.251,8.3S944.1,609.154,938.194,608.812Z" transform="translate(-674.74 -429.816)"/><path class="h" d="M701.778,503.885V525.74L680.04,497.049H696.6Z" transform="translate(-452.373 -330.645)"/><path class="d" d="M876.071,593.819a2.842,2.842,0,0,1-2.271-1.126L828.512,532.92a2.846,2.846,0,0,1,.55-3.987l6.671-5.054a2.845,2.845,0,0,1,3.986.55L885.007,584.2a2.846,2.846,0,0,1-.55,3.987l-6.671,5.055a2.829,2.829,0,0,1-1.715.577Z" transform="translate(-608.213 -383.168)"/><rect class="g" width="14.396" height="14.396" transform="translate(238.257 172.901) rotate(-37.15)"/><rect class="f" width="15.157" height="15.157" transform="translate(186.784 135.12) rotate(-74.991)"/><path class="e" d="M724.35,488.069l-15.287-4.1,4.1-15.288,15.287,4.1Zm-14.467-4.57,13.994,3.75,3.75-13.994-13.994-3.75Z" transform="translate(-529.138 -346.837)"/><path class="i" d="M533.6,522.666a3.811,3.811,0,0,0-.39-5.83l-6.148-49.558-7.943,2.362,8.575,48.229a3.831,3.831,0,0,0,5.906,4.8Z" transform="translate(-402.785 -345.9)"/><path class="i" d="M412.742,633.883h4.646l2.211-17.919h-6.857Z" transform="translate(-274.562 -409.749)"/><path class="e" d="M0,0H14.6V5.641H5.125A5.125,5.125,0,0,1,0,.516Z" transform="translate(151.785 228.449) rotate(180)"/><path class="i" d="M316.779,614.5l4.355,1.62,8.319-16.024-6.426-2.391Z" transform="translate(-210.726 -397.604)"/><path class="e" d="M0,0H14.6V5.641H5.125A5.125,5.125,0,0,1,0,.516Z" transform="matrix(-0.937, -0.349, 0.349, -0.937, 117.301, 225.685)"/><circle class="i" cx="8.784" cy="8.784" r="8.784" transform="translate(121.061 90.944)"/><path class="e" d="M494.1,447.848c-.275-8.091,8.229-13.7,15.383-9.916.912.483,10.324,8.479,10.679,13.445s1.064,13.125,1.064,13.125l9.932,74.136-21.283-1.064,2.57-21.626L498.611,537.94l-16.759-5.332,20.574-59.238S494.516,460.11,494.1,447.848Z" transform="translate(-377.993 -325.575)"/><path class="e" d="M518.931,476.787l1.367,17.767a.739.739,0,0,0,.736.682h6.013a.739.739,0,0,0,.682-1.022l-7.38-17.766a.739.739,0,0,0-1.419.34Z" transform="translate(-402.657 -351.697)"/><path class="i" d="M570.268,515.748A3.811,3.811,0,0,0,569.2,510l-11.906-48.5-7.612,3.275,14.161,46.894a3.831,3.831,0,0,0,6.427,4.074Z" transform="translate(-423.114 -342.061)"/><path class="e" d="M550.648,446.294s-2.483,4.966,0,13.834,4.257,16.317,4.257,16.317,5.675-3.547,8.159-2.483-3.928-23.639-3.928-23.639S555.26,442.037,550.648,446.294Z" transform="translate(-423.024 -331.132)"/><path class="e" d="M528.28,374.539c.119-1.823,2.418-1.885,4.245-1.9s4.01.048,5.044-1.458a3.4,3.4,0,0,0-.012-3.444,9.788,9.788,0,0,0-2.405-2.677,33.342,33.342,0,0,0-7.617-5.365,12.215,12.215,0,0,0-9.082-.785c-3.606,1.287-8.48,7.91-8.9,11.715a13.8,13.8,0,0,0,3.663,10.528c2.563,2.843,8.43,1.7,12.123,2.708-2.245-3.177-.765-8.95,2.831-10.433Z" transform="translate(-396.373 -273.44)"/></svg>