<svg xmlns="http://www.w3.org/2000/svg" width="415.969" height="230.408" viewBox="0 0 415.969 230.408"><defs><style>.a{fill:#f2f2f2;}.b{fill:#52c4f8;}.c{fill:#e6e6e6;}.d{fill:#ffb9b9;}.e{fill:#2f2e41;}.f{fill:#9f616a;}.g{fill:#575a89;}.h{fill:#fbbebe;}.i{fill:#6c63ff;}.j{fill:#0378a6;}.k{fill:#ffb8b8;}.l{fill:#d0cde1;}</style></defs><g transform="translate(2326.293 -3716.08)"><rect class="a" width="415.969" height="230.408" transform="translate(-2326.293 3716.08)"/><rect class="b" width="81.357" height="88.265" transform="translate(-2275.113 3735.031)"/><rect class="c" width="81.357" height="88.265" transform="translate(-2158.988 3735.031)"/><rect class="c" width="81.357" height="88.265" transform="translate(-2042.864 3735.031)"/><rect class="b" width="81.357" height="88.265" transform="translate(-2275.113 3839.273)"/><rect class="c" width="81.357" height="88.265" transform="translate(-2158.988 3839.273)"/><rect class="b" width="81.357" height="88.265" transform="translate(-2042.864 3839.273)"/><circle class="d" cx="13.753" cy="13.753" r="13.753" transform="translate(-2257.263 3760.897)"/><path class="d" d="M358.421,378.545s1.719,8.166,1.719,9.025,8.166,4.728,8.166,4.728l7.306-1.289,2.579-7.736s-4.3-6.447-4.3-9.025Z" transform="translate(-2607.304 3406.635)"/><path class="e" d="M343.532,335.72s4.366-9.461,12.735-7.277,13.1,5.458,13.463,8.733a46.721,46.721,0,0,1-.182,8.187s-.91-6.731-6.732-5.276-14.918.364-14.918.364l-1.455,13.1s-1.637-2.365-3.457-.91S337.71,338.631,343.532,335.72Z" transform="translate(-2598.969 3427.85)"/><path class="a" d="M388.244,419.087l-3.435-15.474a28.14,28.14,0,0,0-6.017-9.452L357.6,386.707H357.6a8.9,8.9,0,0,1-6.3,8.318c-6.449,2.144-10.889-5.082-10.889-5.082l-17.916,13.67a17.478,17.478,0,0,0-5.153,13.757l-.594,5.023H389.9Z" transform="translate(-2588.135 3400.904)"/><ellipse class="e" cx="18.666" cy="19.815" rx="18.666" ry="19.815" transform="translate(-2146.363 3755.625)"/><circle class="e" cx="9.82" cy="9.82" r="9.82" transform="translate(-2120.955 3785.786)"/><path class="f" d="M398.054,188.971l5.261,13.677-13.327,5.612-1.17-2.653-4.091-9.272Z" transform="translate(-2516.028 3593.484)"/><circle class="f" cx="11.749" cy="11.749" r="11.749" transform="translate(-2140.244 3767.9)"/><path class="e" d="M560.717,355.488c7.385-4.928,9.592-6.106,18.056-4.2l.508-12.348-21.873,4.588Z" transform="translate(-2698.815 3422.873)"/><path class="g" d="M606.3,410.5l-.324.038a.215.215,0,0,0-.027-.032c-1.286-1.285-7.421-3.624-12-5.245h-.005c-2.906-1.032-5.18-1.772-5.18-1.772l-5.531-5.687c-1.393,1.566-4.337,2.776-7.135,3.63a56.017,56.017,0,0,1-6.525,1.556h-.005l-1.145,3.657s-12.979,9.825-14.027,10.872h0v.011a.571.571,0,0,0-.1.41v.027a47.626,47.626,0,0,0-1,9.533h56.518v-3.316C609.816,419.618,606.3,410.5,606.3,410.5Z" transform="translate(-2696.925 3395.804)"/><path class="e" d="M810.972,399.213H783.026l-1.539-15.183-.092-.924-.189-1.831-.772-7.653-.967,8.221-2.042,17.37h-5.077l.189-5.406.189-5.482.081-2.209,1.042-30.052a21.458,21.458,0,0,1,4.283-13.227,16.712,16.712,0,0,1,13.5-6.53,17.2,17.2,0,0,1,13.73,6.768A21.745,21.745,0,0,1,809.85,356.5l.481,18.191Z" transform="translate(-2797.663 3424.084)"/><circle class="h" cx="12.292" cy="12.292" r="12.292" transform="translate(-2018.325 3766.317)"/><path class="h" d="M792.931,385.547s3.512,11.853,0,15.365a40.647,40.647,0,0,0-4.39,4.829l10.1,13.609,17.56-21.511s-12.292-3.512-9.219-13.17Z" transform="translate(-2805.11 3401.842)"/><path class="h" d="M666.375,260.554H656l-.173-1.777-.157-1.642,4.775-.6,5.758-.718.065,1.842Z" transform="translate(-2640.633 3562.743)"/><path class="i" d="M819.645,428.911s-1.756-10.975-3.073-15.365-2.634-4.39-2.634-4.39h0c-1.55-1.55-5.277-1.826-8.08-1.782-1.966.022-3.478.194-3.478.194l-15.658,16.517L778.836,413.6h0a11.474,11.474,0,0,0-2.1.362,13.905,13.905,0,0,0-1.739.567,23.863,23.863,0,0,0-6.66,4.272h-.005a24.906,24.906,0,0,0-1.8,1.772,51.412,51.412,0,0,0-3.9,11.326H812.8l.114-2.258h0Z" transform="translate(-2793.193 3391.402)"/><path class="e" d="M786.331,357.037c7.939-4.28,11.2-4.1,21.072,0l2.634-6.418a4.563,4.563,0,0,0-4.558-4.558H787.815a4.563,4.563,0,0,0-4.558,4.558Z" transform="translate(-2802.681 3419.596)"/><path class="e" d="M372.923,521.9a3.238,3.238,0,0,0-1.878.42,4.9,4.9,0,0,0-1.27,1.677,20.054,20.054,0,0,1-5.464,6.172c-1.623,1.189-3.687,2.672-3.41,4.865a6.575,6.575,0,0,0,.791,2.054c1.5,3.023,5.585,5.36,5.183,8.81,1.488-2.491-.5-3.723.986-6.214.709-1.186,1.94-2.525,3.009-1.78.358.25.593.7.966.916.89.522,1.837-.476,2.625-1.183,2.717-2.439,6.58-1.8,9.961-1.04,1.6.359,3.349.829,4.292,2.355,1.24,2.005-1.179,4.172-1.79,6.439a1.235,1.235,0,0,0,1.326,1.538c1.014-.1,2.216-.182,2.276-.627,1.276.045,2.84-.1,3.387-1.428a5.587,5.587,0,0,0,.262-1.625c.2-2.232,1.148-4.269,1.776-6.393s.9-4.615-.159-6.5a7.52,7.52,0,0,0-1.388-1.687C388.395,522.852,380.492,521.893,372.923,521.9Z" transform="translate(-2608.433 3338.735)"/><path class="f" d="M370.253,572.64s1.307,10.894-3.486,11.765,4.357,15.687,4.357,15.687l21.787,2.615-5.229-17.43s-3.486-1.307-1.307-10.022S370.253,572.64,370.253,572.64Z" transform="translate(-2610.503 3316.351)"/><circle class="f" cx="13.072" cy="13.072" r="13.072" transform="translate(-2243.519 3870.036)"/><path class="j" d="M350.9,624.393c2.312-9.09,5.5-21.335,5.5-21.335s1.242.254,3.2.54a75.688,75.688,0,0,0,8.62.783,31.364,31.364,0,0,0,10.592-1.183,9.916,9.916,0,0,0,3.127-1.669,6.026,6.026,0,0,0,1.048-1.086c5.228-6.973,7.4,19.606,7.4,19.606l.4,4.343Z" transform="translate(-2603.844 3303.146)"/><path class="e" d="M376.01,528.236a2.967,2.967,0,0,0-1.529.3,3.564,3.564,0,0,0-1.034,1.185A15.055,15.055,0,0,1,369,534.08c-1.322.841-3,1.889-2.776,3.439a4.3,4.3,0,0,0,.644,1.452,11.418,11.418,0,0,1,1.387,7.117l3.634-5.282c.577-.839,1.579-1.785,2.45-1.258.292.176.483.492.787.647.725.369,1.5-.337,2.137-.836,2.211-1.724,5.356-1.272,8.108-.735,1.3.253,2.726.586,3.494,1.664,1.276,1.792-.056,4.38.688,6.45a1.9,1.9,0,0,0,.787-1.256c1.039.032,2.312-.07,2.757-1.009a3.479,3.479,0,0,0,.213-1.148,21.251,21.251,0,0,1,1.446-4.519,5.365,5.365,0,0,0-.129-4.593,5.556,5.556,0,0,0-1.13-1.192C388.6,528.908,382.171,528.23,376.01,528.236Z" transform="translate(-2610.883 3335.821)"/><path class="a" d="M352.143,598.693a30.356,30.356,0,0,1-4.834-8.6v0s-4.753-2.722-6.06-.108-13.508,9.15-14.815,9.15a.184.184,0,0,1-.032.011c-.518.173-7.011,2.533-8.68,11.321A65.762,65.762,0,0,0,317,619.6h35.534c.367-3.851.643-7.454.751-10.565.157-4.337.005-7.707-.654-9.447a2.751,2.751,0,0,0-.488-.9Z" transform="translate(-2588.254 3307.943)"/><path class="a" d="M421.9,602.93c-.022-.1-.038-.189-.054-.27a2.008,2.008,0,0,0-.292-.648.041.041,0,0,1,0-.016c-2.517-3.9-18.7-9.268-18.7-9.268l-.6,2.09s.076,2.063.184,5.369c.108,3.095.238,7.275.362,11.866.086,3,.162,6.174.232,9.328H427.24a141.417,141.417,0,0,0-5.34-18.451Z" transform="translate(-2627.455 3306.159)"/><path class="g" d="M858.078,637.448l1.853-9.052,1.723-.729.011.005c.157.06,2.031.853,2.031,3.862,0,.6-.092,2.781-.243,5.914Z" transform="translate(-2837.089 3290.09)"/><circle class="k" cx="15.045" cy="15.045" r="15.045" transform="translate(-2013.516 3865.83)"/><path class="k" d="M630.453,387.44l-1.254,25.7-19.433-11.283,2.507-14.418Z" transform="translate(-2619.52 3502.211)"/><path class="j" d="M635.383,422.272,634.108,433.2h-10.2l-11.072-21.275-3.122-5.99-1.5-.978,1.734-.394,1.367.988,15.291,11.078,2.452-7.362.065-.189.616-1.853Z" transform="translate(-2618.807 3494.335)"/><path class="e" d="M799.295,525.488s1.881-9.4,12.538-7.523l-1.254.627s10.03-1.254,8.776,4.388c0,0,8.149,5.015,6.269,10.657a63.787,63.787,0,0,0-2.508,10.03l-1.881-1.881s-1.881-12.538-13.165-11.284c-8.463.94-11.911,4.937-12.792,7.816a25.441,25.441,0,0,1-1.549,3.94l-.7.154S789.265,528.622,799.295,525.488Z" transform="translate(-2806.855 3340.655)"/><path class="a" d="M813.7,609.654l-.011-.005-7.988-7.421v-5.012l-6.168-4.861-.092,2.954L798.8,615.4l-10.257-14.108-6.914-9.506-1.242-1.7.3-1.593-3.829,4.337L763,603.221l-1.188.891a37.808,37.808,0,0,0-3.759,4.386c-.373.556-2.069,4.985-4.278,10.932h61.708c.151-3.133.243-5.309.243-5.914C815.729,610.507,813.855,609.713,813.7,609.654Z" transform="translate(-2789.123 3308.108)"/><path class="e" d="M582.162,528.783h0c-10.2,0-18.46,9.172-18.46,20.486v14.375h4.421l2.56-5.326-.64,5.326H598.46l2.327-4.842-.582,4.842h3.2V552.357C603.4,539.337,593.9,528.783,582.162,528.783Z" transform="translate(-2701.71 3335.565)"/><path class="l" d="M559.974,634.836H547.967l-.113-9.792c-.005-.1-.005-.2-.005-.3l2.4-2.706.043-.049,9.177,5.812Z" transform="translate(-2694.419 3292.702)"/><circle class="h" cx="13.142" cy="13.142" r="13.142" transform="translate(-2134.323 3870.918)"/><path class="h" d="M580.907,577.19s3.855,19.975,2.1,22.078,18.573-3.855,18.573-3.855-6.658-13.667-3.154-21.377Z" transform="translate(-2709.622 3314.754)"/><path class="i" d="M601.26,600.82h-.005a3.017,3.017,0,0,0-1.507-1.469c-2.576-1.086-4.8-1.917-6.622-2.549a14,14,0,0,0-9.906.308c-.308.124-.61.259-.907.411,0,0-12.849,2.447-14.378,2.139-.113-.022-.232-.038-.346-.049a6.028,6.028,0,0,0-.7-.06,15.4,15.4,0,0,0-8.534,2.117c-4.218,2.447-10.473,6.784-10.6,11.008l-.119.135.119,10.095h56.4c.113-9.673.178-16.943.178-17.435C604.334,603.942,601.26,600.82,601.26,600.82Z" transform="translate(-2694.322 3304.634)"/><path class="e" d="M590.01,535.912a9.681,9.681,0,0,0-7.639-3.9h-.362c-6.988,0-12.652,6.323-12.652,14.123H571.7l.378-2.878.554,2.878h13.887l1.163-2.435-.291,2.435h2.732q1.912,9.5-5.5,18.993h4.654l2.327-4.87-.582,4.87H599.9l1.745-11.2C601.642,545.54,596.768,538.427,590.01,535.912Z" transform="translate(-2704.31 3334.08)"/><circle class="e" cx="6.914" cy="6.914" r="6.914" transform="translate(-2118.664 3857.343)"/></g></svg>