<svg xmlns="http://www.w3.org/2000/svg" width="364.133" height="229.939" viewBox="0 0 364.133 229.939"><defs><style>.a{fill:#ffb8b8;}.b{fill:#0572c4;}.c{fill:#f2f2f2;}.d{fill:#d95970;}.e{fill:#d0cde1;}.f{fill:#a0616a;}.g{fill:#2f2e41;}.h{opacity:0.15;}</style></defs><g transform="translate(2114.124 -4088.999)"><path class="a" d="M427.529,697.173q-.131,0-.261.008l.125-.234C427.437,697.02,427.48,697.1,427.529,697.173Z" transform="translate(-2541.392 3411.035)"/><g transform="translate(-2025.652 4089)"><path class="b" d="M641.094,101.059a46.84,46.84,0,0,1-6.2,24.2,48.341,48.341,0,0,1-4.406,6.327c-14.455,17.68-41.329,27.356-65.619,43.03-71.7,46.266-79.464-27.87-76.226-73.554a81.511,81.511,0,0,1,19.889-48.247,75.7,75.7,0,0,1,7.742-7.611,74.152,74.152,0,0,1,48.595-17.7c32.461,0,60.182,19.579,71.173,47.169a71.255,71.255,0,0,1,5.051,26.387Z" transform="translate(-380.678 -27.503)"/><path class="c" d="M635.921,88.423l-72.577,8.732a75.711,75.711,0,0,1,7.742-7.611Z" transform="translate(-435.487 -71.845)"/><path class="c" d="M849.624,383.654a48.346,48.346,0,0,1-4.406,6.327L783.05,382.5Z" transform="translate(-595.407 -285.901)"/><path class="c" d="M759.411,192.169,654.05,178.5l102.825,6.079a70.873,70.873,0,0,1,2.536,7.59Z" transform="translate(-501.51 -137.413)"/><path class="d" d="M475.757,79.123c0,.188-.005.373-.022.555A7.619,7.619,0,1,1,461.4,75.566a7.01,7.01,0,0,1,.561-.9A7.616,7.616,0,0,1,475.73,78.5C475.749,78.707,475.757,78.914,475.757,79.123Z" transform="translate(-360.642 -59.53)"/><path class="e" d="M485.948,97.321c0,.188-.005.373-.022.555L474.519,96.5l11.4.2A6.025,6.025,0,0,1,485.948,97.321Z" transform="translate(-370.833 -77.728)"/><path class="e" d="M476.137,113.615l-10.553,1.271a7.636,7.636,0,0,1-.8-1.075Z" transform="translate(-363.743 -90.182)"/><path class="e" d="M472.4,82.615l-8.642,1.039a7,7,0,0,1,.561-.9Z" transform="translate(-363.001 -67.618)"/><path class="d" d="M861.866,573.7c-.088.166-.18.327-.279.48a7.619,7.619,0,1,1-10.735-10.352,6.991,6.991,0,0,1,.917-.533,7.616,7.616,0,0,1,10.364,9.844C862.054,573.326,861.964,573.513,861.866,573.7Z" transform="translate(-642.33 -416.923)"/><path class="e" d="M874.271,587.371c-.088.166-.18.327-.28.48l-9.433-6.559,9.98,5.518C874.459,587,874.369,587.186,874.271,587.371Z" transform="translate(-654.735 -430.596)"/><path class="e" d="M857.722,597.627,847.8,593.8a7.627,7.627,0,0,1-.208-1.327Z" transform="translate(-642.389 -438.736)"/><path class="e" d="M867.9,569.061l-8.121-3.133a7.02,7.02,0,0,1,.917-.533Z" transform="translate(-651.253 -419.025)"/><path class="d" d="M1063.59,114.8c.131.134.256.271.372.413a7.618,7.618,0,1,1-13.133,7.065,6.989,6.989,0,0,1-.228-1.036,7.616,7.616,0,0,1,12.536-6.867A5.934,5.934,0,0,1,1063.59,114.8Z" transform="translate(-790.092 -89.375)"/><path class="e" d="M1075.15,119.818c.131.134.256.271.372.413l-9.124,6.983,8.3-7.82A6.01,6.01,0,0,1,1075.15,119.818Z" transform="translate(-801.65 -94.388)"/><path class="e" d="M1079.88,138.039l-6.667,8.278a7.635,7.635,0,0,1-1.327-.207Z" transform="translate(-805.641 -107.96)"/><path class="e" d="M1056.52,123.526l-5.461,6.778a7.022,7.022,0,0,1-.228-1.036Z" transform="translate(-790.321 -97.396)"/><path class="f" d="M567.675,636.956s16.72.7,16.72,4.877-18.811,0-18.811,0Z" transform="translate(-437.118 -471.113)"/><path class="g" d="M292.879,635.438l-31.351-2.09-1.393-16.72-6.967,14.63-30.654-4.18c.7-26.474,11.844-52.251,12.54-55.735s2.362-17.877,2.362-17.877c3.044-6.458,19-7.064,31.5-6.479,5.183.237,9.782.683,12.617,1,1.874.209,2.982.362,2.982.362,5,5.149,8.214,12.164,10.193,20C301.845,596.591,292.879,635.438,292.879,635.438Z" transform="translate(-187.403 -405.5)"/><circle class="f" cx="17.417" cy="17.417" r="17.417" transform="translate(53.225 33.473)"/><path class="f" d="M273.263,229.879s-4.877,21.6-12.541,27.867,29.958,0,29.958,0-8.36-13.934-2.09-20.2S273.263,229.879,273.263,229.879Z" transform="translate(-214.464 -174.809)"/><path class="e" d="M281.482,373.1l-11.558,1.282-32.333,3.6s-.153-.411-.425-1.157c-2.348-6.4-13.655-37.558-14.9-46.915-1.393-10.45,13.237-22.991,13.237-22.991s13.934-2.787,18.114-2.787,20.9,6.27,20.9,6.27l6.235,56.09.536,4.856Z" transform="translate(-187.152 -228.851)"/><path class="h" d="M387.737,470l-23.43-13.732s-.411-1.338-1.108-3.6c-.348-1.129-.773-2.494-1.254-4.041-2.7-8.681-7.239-23-10.875-33.469-5.573-16.024,21.6,28.564,21.6,28.564l1.359,1.052.536,4.856c1.874.209,2.982.362,2.982.362C382.539,455.144,385.758,462.16,387.737,470Z" transform="translate(-280.428 -307.143)"/><path class="e" d="M364.059,326.775s-6.967,9.057-1.393,25.081,13.237,41.1,13.237,41.1l40.408,23.687,5.573-6.967L384.263,380.42s-1.393-52.948-8.36-55.038A14.278,14.278,0,0,0,364.059,326.775Z" transform="translate(-287.844 -243.837)"/><path class="f" d="M246.836,543.264s9.754,20.2,13.934,18.114-10.45-22.991-10.45-22.991Z" transform="translate(-205.106 -399.366)"/><path class="e" d="M134.17,352.77,97.245,383.424s-13.934,9.754,11.844,16.72,27.867,11.147,27.867,11.147,2.787-9.057,6.27-7.664L113.269,389l24.384-14.63Z" transform="translate(-93.485 -264.259)"/><path class="g" d="M166.1,156.046a98.355,98.355,0,0,0,9.862-5.23c-.256-7.591.679-14.483,3.416-18.136,1.536-3.488,4.762-6.979,7.288-9.729,6.2-6.753,19.922-10.522,22.355-7.148,18.4.363,20.339,14.788,20.339,14.788-.1,6.033-6.366,6.224-11.859,6,.492,4.119-.819,8.4-4.615,10.3-7.259,3.63-9.437,8.348-5.807,11.614s10.163,11.977,1.452,14.155-9.8,6.533-7.259,8.348-5.807-3.267-5.807-3.267-1.452,8.711-9.074,6.533a4.585,4.585,0,0,1-2.037-1.443c-2.059,2.262-3.895,3.6-5.279,3.607-7.927.042-6.976-8.738-6.976-8.738s-9.409,2.642-6.473,1.58,3.062-5.55-4.739-10S161.726,158.212,166.1,156.046Z" transform="translate(-140.257 -90.86)"/><path class="c" d="M545.079,256.424l-.126-.017.308,1.172a30.77,30.77,0,0,0,1.265,4.81l9.041,34.371a5.825,5.825,0,0,0,4.743,4.275l18.439,2.853a5.825,5.825,0,0,0,6.026-3.007l17.525-32.73a30.759,30.759,0,0,0,1.5-2.8l.595-1.111-.093-.012a30.98,30.98,0,1,0-59.221-7.8Z" transform="translate(-421.977 -168.481)"/><path class="c" d="M575.582,300.422a6.344,6.344,0,0,1-.97-.075l-19.274-2.982a6.36,6.36,0,0,1-5.18-4.668l-9.451-35.927a32.385,32.385,0,0,1-1.327-5.05l-.239-1.572a32.661,32.661,0,0,1,37.387-36.427l-.083.538a32.129,32.129,0,0,0-36.717,36.168l.184,1.176a32.189,32.189,0,0,0,1.316,5.007l9.457,35.948a5.815,5.815,0,0,0,4.736,4.269l19.274,2.982a5.825,5.825,0,0,0,6.018-3l.48.257a6.373,6.373,0,0,1-5.611,3.356Z" transform="translate(-417.677 -162.77)"/><rect class="b" width="34.1" height="0.704" transform="translate(151.066 127.777) rotate(-69.885)"/><rect class="b" width="0.704" height="34.1" transform="translate(142.943 92.823) rotate(-2.516)"/><path class="c" d="M600.119,579.25l-24.7-3.821a.7.7,0,0,1,.215-1.391l24.7,3.821a.7.7,0,0,1-.215,1.391Z" transform="translate(-443.844 -425.31)"/><path class="c" d="M602.446,559.976l-24.7-3.821a.7.7,0,1,1,.215-1.391l24.7,3.821a.7.7,0,1,1-.215,1.391Z" transform="translate(-445.538 -411.281)"/><path class="c" d="M604.773,540.7l-24.7-3.821a.7.7,0,1,1,.215-1.391l24.7,3.821a.7.7,0,1,1-.215,1.391Z" transform="translate(-447.232 -397.252)"/><path class="c" d="M598.237,584.447c4.9.758,9.292-1.358,9.813-4.726l-17.74-2.744C589.789,580.344,593.338,583.689,598.237,584.447Z" transform="translate(-455.078 -427.455)"/><path class="b" d="M624.794,341.85a4.337,4.337,0,0,1-2.4-1.554c-.157-.183-.309-.373-.462-.563a5.5,5.5,0,0,0-1.814-1.688c-1.616-.754-3.519.3-5.167,1.429l-.4-.581c1.812-1.242,3.925-2.39,5.863-1.486a6.1,6.1,0,0,1,2.065,1.886c.148.185.3.369.448.546.5.58,1.488,1.521,2.55,1.3a3.43,3.43,0,0,0,1.223-.648,6.558,6.558,0,0,1,.866-.546,3.447,3.447,0,0,1,3.784.535,6.78,6.78,0,0,1,.514.543,1.752,1.752,0,0,0,2.832.333,3.641,3.641,0,0,1,2.131-.638l.076.01c1.387.215,2.026,1.748,2.388,2.892l-.671.212c-.491-1.556-1.09-2.329-1.875-2.415a3.093,3.093,0,0,0-1.714.558,2.4,2.4,0,0,1-3.7-.488,6.188,6.188,0,0,0-.459-.488,2.766,2.766,0,0,0-3-.424,5.956,5.956,0,0,0-.772.49,4,4,0,0,1-1.488.763,2.313,2.313,0,0,1-.818.022Z" transform="translate(-472.758 -252.84)"/></g></g></svg>