<svg xmlns="http://www.w3.org/2000/svg" width="367.859" height="230.487" viewBox="0 0 367.859 230.487"><defs><style>.a{fill:#ccc;}.b{fill:#e6e6e6;}.c{fill:#fff;}.d{fill:#3f3d56;}.e{fill:#2f2e41;}.f{fill:#0572c4;}.g{fill:#52c4f8;}.h{opacity:0.2;}.i{fill:#f2f2f2;}</style></defs><g transform="translate(2.679)"><path class="a" d="M551.368,697.928H241.4a10.393,10.393,0,0,1-10.393-10.393h0q168.544-19.588,330.753,0h0a10.393,10.393,0,0,1-10.392,10.393Z" transform="translate(-203.215 -467.441)"/><path class="b" d="M561.759,394.6l-330.751-.612,38.333-64.5.183-.306V187.031a13.138,13.138,0,0,1,13.14-13.138H508.272a13.138,13.138,0,0,1,13.138,13.139V330.159Z" transform="translate(-203.215 -173.893)"/><path class="c" d="M348.074,195.864a4.284,4.284,0,0,0-4.28,4.28V329.755a4.285,4.285,0,0,0,4.28,4.28H576.117a4.285,4.285,0,0,0,4.28-4.28V200.143a4.284,4.284,0,0,0-4.28-4.28Z" transform="translate(-268.926 -186.693)"/><path class="a" d="M338.591,567.913a1.839,1.839,0,0,0-1.666,1.067l-11.812,25.678a1.834,1.834,0,0,0,1.666,2.6H575.171a1.834,1.834,0,0,0,1.64-2.654l-12.839-25.678a1.825,1.825,0,0,0-1.64-1.014Z" transform="translate(-257.944 -403.454)"/><circle class="c" cx="2.751" cy="2.751" r="2.751" transform="translate(189.502 1.528)"/><path class="a" d="M559.838,649.94a1.837,1.837,0,0,0-1.771,1.357l-2.963,11a1.834,1.834,0,0,0,1.771,2.311h56.346a1.834,1.834,0,0,0,1.733-2.434l-3.809-11a1.835,1.835,0,0,0-1.733-1.234Z" transform="translate(-392.001 -451.244)"/><path class="a" d="M414.238,366.922v2.446H162.169l.189-.306v-2.14Z" transform="translate(-96.042 -213.773)"/><path class="a" d="M850.6,554.237a.447.447,0,0,0-.431.331l-.721,2.68a.447.447,0,0,0,.431.563H863.6a.447.447,0,0,0,.422-.593l-.928-2.68a.447.447,0,0,0-.422-.3Z" transform="translate(-563.514 -395.486)"/><path class="a" d="M802.6,554.237a.447.447,0,0,0-.431.331l-.721,2.68a.447.447,0,0,0,.431.563H815.6a.447.447,0,0,0,.422-.593l-.928-2.68a.447.447,0,0,0-.422-.3Z" transform="translate(-535.549 -395.486)"/><path class="d" d="M624.131,394.387h1.075l-2.151-143.743H621.98l.043,2.868h-24.1l.043-2.868h-1.075L594.74,394.387h1.075l.139-9.32h28.04Zm-1.55-103.6H597.363l.263-17.565h24.693Zm.016,1.075.263,17.565H597.084l.263-17.565Zm.279,18.64.263,17.565H596.8l.263-17.565Zm.279,18.64.263,17.565H596.526l.263-17.565Zm.279,18.64.263,17.565h-27.45l.263-17.565Zm-1.394-93.2.263,17.565H597.642l.263-17.565Zm-26.071,129.4.263-17.565h27.482l.263,17.565Z" transform="translate(-415.128 -218.609)"/><circle class="e" cx="17.535" cy="17.535" r="17.535" transform="translate(171.981 46.474)"/><rect class="e" width="5.327" height="9.545" transform="translate(194.59 77.078) rotate(-10.261)"/><rect class="e" width="5.327" height="9.545" transform="translate(184.106 78.976) rotate(-10.261)"/><ellipse class="e" cx="4.439" cy="1.665" rx="4.439" ry="1.665" transform="matrix(0.763, -0.646, 0.646, 0.763, 183.049, 90.672)"/><ellipse class="e" cx="4.439" cy="1.665" rx="4.439" ry="1.665" transform="matrix(0.763, -0.646, 0.646, 0.763, 193.315, 88.814)"/><circle class="c" cx="5.993" cy="5.993" r="5.993" transform="translate(182.296 53.727)"/><circle class="d" cx="1.998" cy="1.998" r="1.998" transform="translate(183.828 55.574)"/><path class="f" d="M615.381,264.385c.264-6.492-5.331-11.991-12.5-12.282s-13.188,4.736-13.452,11.228,4.717,7.967,11.883,8.258S615.118,270.877,615.381,264.385Z" transform="translate(-412.031 -219.452)"/><ellipse class="e" cx="2.752" cy="8.768" rx="2.752" ry="8.768" transform="translate(164.163 61.539) rotate(-77.117)"/><ellipse class="e" cx="2.752" cy="8.768" rx="2.752" ry="8.768" transform="translate(198.585 67.263) rotate(-77.117)"/><path class="c" d="M618.957,340.9a4,4,0,1,1-7.862,1.431v-.008c-.393-2.171,1.286-2.94,3.457-3.333S618.564,338.728,618.957,340.9Z" transform="translate(-424.624 -269.979)"/><ellipse class="e" cx="8.988" cy="2.822" rx="8.988" ry="2.822" transform="translate(121.645 129.948) rotate(-69.082)"/><circle class="e" cx="17.976" cy="17.976" r="17.976" transform="translate(90.252 150.996) rotate(-80.783)"/><rect class="e" width="5.461" height="9.784" transform="translate(102.683 150.241)"/><rect class="e" width="5.461" height="9.784" transform="translate(113.605 150.241)"/><ellipse class="e" cx="4.551" cy="1.707" rx="4.551" ry="1.707" transform="translate(102.683 158.432)"/><ellipse class="e" cx="4.551" cy="1.707" rx="4.551" ry="1.707" transform="translate(113.605 158.205)"/><path class="f" d="M387.911,439.023c-1.451-6.5,3.188-13.069,10.363-14.671s14.168,2.369,15.619,8.869-3.3,8.9-10.478,10.5S389.362,445.524,387.911,439.023Z" transform="translate(-294.474 -319.607)"/><ellipse class="e" cx="2.822" cy="8.988" rx="2.822" ry="8.988" transform="translate(81.298 126.49) rotate(-64.626)"/><circle class="e" cx="17.976" cy="17.976" r="17.976" transform="translate(15.065 136.359)"/><rect class="e" width="5.461" height="9.784" transform="translate(24.849 168.442)"/><rect class="e" width="5.461" height="9.784" transform="translate(35.771 168.442)"/><ellipse class="e" cx="4.551" cy="1.707" rx="4.551" ry="1.707" transform="translate(24.849 176.633)"/><ellipse class="e" cx="4.551" cy="1.707" rx="4.551" ry="1.707" transform="translate(35.772 176.406)"/><circle class="c" cx="6.144" cy="6.144" r="6.144" transform="translate(27.352 143.64)"/><circle class="d" cx="2.048" cy="2.048" r="2.048" transform="translate(31.448 147.736)"/><path class="f" d="M201.433,482.63c-1.451-6.5,3.188-13.069,10.363-14.671s14.168,2.369,15.619,8.869-3.3,8.9-10.478,10.5S202.884,489.131,201.433,482.63Z" transform="translate(-185.829 -345.013)"/><ellipse class="e" cx="8.988" cy="2.822" rx="8.988" ry="2.822" transform="translate(37.667 96.497) rotate(-69.082)"/><circle class="e" cx="17.976" cy="17.976" r="17.976" transform="translate(6.274 117.546) rotate(-80.783)"/><rect class="e" width="5.461" height="9.784" transform="translate(18.706 116.79)"/><rect class="e" width="5.461" height="9.784" transform="translate(29.628 116.79)"/><ellipse class="e" cx="4.551" cy="1.707" rx="4.551" ry="1.707" transform="translate(18.706 124.982)"/><ellipse class="e" cx="4.551" cy="1.707" rx="4.551" ry="1.707" transform="translate(29.628 124.754)"/><circle class="c" cx="6.144" cy="6.144" r="6.144" transform="translate(21.209 91.988)"/><circle class="d" cx="2.048" cy="2.048" r="2.048" transform="translate(25.305 96.084)"/><path class="f" d="M186.714,358.88c-1.451-6.5,3.188-13.069,10.363-14.671s14.168,2.369,15.619,8.869-3.3,8.9-10.478,10.5S188.165,365.381,186.714,358.88Z" transform="translate(-177.254 -272.915)"/><ellipse class="e" cx="2.822" cy="8.988" rx="2.822" ry="8.988" transform="translate(-2.679 93.04) rotate(-64.626)"/><path class="c" d="M207.707,432.4c0,1.759,4.53,5.233,9.557,5.233s9.74-4.953,9.74-6.712-4.713.341-9.74.341S207.707,430.638,207.707,432.4Z" transform="translate(-189.639 -323.23)"/><path class="g" d="M269.456,255.461a1.253,1.253,0,0,0-1.252,1.252v51.756a1.254,1.254,0,0,0,1.252,1.252h119.79a1.254,1.254,0,0,0,1.252-1.252V256.713a1.254,1.254,0,0,0-1.252-1.252Z" transform="translate(-224.886 -221.416)"/><circle class="c" cx="12.155" cy="12.155" r="12.155" transform="translate(64.761 49.021)"/><path class="c" d="M412.439,316.587a1.421,1.421,0,0,0,0,2.842h38.377a1.421,1.421,0,1,0,.047-2.842Z" transform="translate(-308.091 -257.028)"/><path class="c" d="M412.439,296.86a1.421,1.421,0,0,0,0,2.842H431.6a1.421,1.421,0,0,0,.047-2.842Z" transform="translate(-308.091 -245.535)"/><path class="c" d="M412.439,337.253a1.421,1.421,0,0,0,0,2.842h38.377a1.421,1.421,0,0,0,.047-2.842Z" transform="translate(-308.091 -269.068)"/><ellipse class="e" cx="2.822" cy="8.988" rx="2.822" ry="8.988" transform="translate(281.677 148.133) rotate(-20.918)"/><circle class="e" cx="17.976" cy="17.976" r="17.976" transform="translate(279.759 157.991) rotate(-9.217)"/><path class="e" d="M735.413,447.932h-5.461l1.068,11.717,4.4-1.2Z" transform="translate(-426.84 -260.971)"/><path class="e" d="M706.889,448.005h-5.461l1.068,11.717,4.2-1.226Z" transform="translate(-410.221 -261.013)"/><ellipse class="e" cx="4.551" cy="1.707" rx="4.551" ry="1.707" transform="translate(287.333 196.187) rotate(-4.182)"/><circle class="c" cx="6.144" cy="6.144" r="6.144" transform="translate(293.783 162.159)"/><circle class="d" cx="2.048" cy="2.048" r="2.048" transform="translate(297.879 166.255)"/><ellipse class="e" cx="8.988" cy="2.822" rx="8.988" ry="2.822" transform="translate(311.764 165.893) rotate(-53.55)"/><path class="c" d="M863.077,604.21c0-1.45,3.734-4.313,7.876-4.313s8.027,4.082,8.027,5.532-3.884-.281-8.027-.281S863.077,605.66,863.077,604.21Z" transform="translate(-571.466 -422.088)"/><path class="g" d="M863.992,413.9l-98.4-13.641a2.925,2.925,0,0,1-2.493-3.3l11.062-79.793a2.925,2.925,0,0,1,3.3-2.493l98.4,13.641a2.925,2.925,0,0,1,2.493,3.3L867.285,411.4a2.925,2.925,0,0,1-3.293,2.493Z" transform="translate(-513.202 -255.898)"/><path class="c" d="M850.023,429.227l-50.234-6.964a1.035,1.035,0,0,1-.186-.041l29.464-37.86a1.679,1.679,0,0,1,2.9.4l12.116,29.827.581,1.427Z" transform="translate(-534.485 -296.131)"/><path class="h" d="M735.781,298.45l-17.151-2.377,10.115-11.062.728-.8.364-.4.581,1.427Z" transform="translate(-420.244 -165.354)"/><path class="c" d="M926.767,456.115l-43.449-6.023,10.115-11.062.728-.8,13.181-14.417a2.241,2.241,0,0,1,3.323.26,2.013,2.013,0,0,1,.131.219Z" transform="translate(-583.259 -319.142)"/><circle class="c" cx="7.513" cy="7.513" r="7.513" transform="translate(308.636 86.058)"/><rect class="d" width="9.183" height="9.183" transform="translate(265.933 64.911) rotate(7.893)"/><path class="i" d="M889.234,527c1.451-6.5-3.188-13.069-10.363-14.671S864.7,514.7,863.251,521.2s3.3,8.9,10.478,10.5S887.783,533.5,889.234,527Z" transform="translate(-571.416 -370.863)"/><ellipse class="e" cx="4.551" cy="1.707" rx="4.551" ry="1.707" transform="translate(299.309 196.159) rotate(-4.182)"/></g></svg>