<svg xmlns="http://www.w3.org/2000/svg" width="496.431" height="311.572" viewBox="0 0 496.431 311.572"><defs><style>.a{fill:#2f2e41;}.b{fill:#3f3d56;}.c{fill:#0378a6;}.d{fill:#ffb8b8;}.e{fill:#d0cde1;}.f{opacity:0.2;}.g{fill:#ff6584;}.h{fill:#fff;}.i{fill:#f2cea2;}</style></defs><g transform="translate(0 0)"><path class="a" d="M883.424,113.64c-6.559-11.082-19.535-11.6-19.535-11.6s-12.645-1.617-20.756,15.262c-7.561,15.732-17.995,30.922-1.68,34.6l2.947-9.172,1.825,9.855a63.843,63.843,0,0,0,6.981.119c17.472-.564,34.111.165,33.576-6.1C886.07,138.271,889.736,124.3,883.424,113.64Z" transform="translate(-480.377 -102)"/><ellipse class="b" cx="100.276" cy="5.82" rx="100.276" ry="5.82" transform="translate(269.293 285.159)"/><ellipse class="b" cx="127.135" cy="5.82" rx="127.135" ry="5.82" transform="translate(2.935 286.502)"/><ellipse class="b" cx="113.258" cy="5.82" rx="113.258" ry="5.82" transform="translate(170.36 299.932)"/><path class="c" d="M738.049,660.2c.413,14.127-7.842,19.3-18.2,19.607q-.361.011-.719.013-.721.006-1.427-.024c-9.369-.389-16.785-5.362-17.169-18.5-.4-13.6,16.479-31.263,17.745-32.57h0l.073-.075S737.637,646.076,738.049,660.2Z" transform="translate(-407.309 -392.891)"/><path class="b" d="M731.847,677.67l6.581-9.786-6.567,10.839.014,1.1q-.721.006-1.427-.024l.326-14.155-.009-.109.012-.021.031-1.338L723.6,653.715l7.2,9.462.026.283.247-10.694-6.225-10.848,6.242,8.969-.065-22.156v-.074l0,.073.413,17.462,5.673-7.093-5.654,8.6.124,9.566,5.22-9.336-5.2,10.742.069,5.319,7.592-13-7.568,14.86Z" transform="translate(-420.055 -392.894)"/><path class="c" d="M83.049,671.2c.413,14.127-7.842,19.3-18.2,19.607q-.361.011-.719.013-.721.005-1.427-.024c-9.369-.389-16.785-5.362-17.169-18.5-.4-13.6,16.479-31.263,17.745-32.57h0l.073-.075S82.637,657.076,83.049,671.2Z" transform="translate(-45.527 -398.967)"/><path class="b" d="M76.847,688.67l6.581-9.786-6.567,10.839.014,1.1q-.721.006-1.427-.024l.326-14.155-.009-.109.012-.021.031-1.338L68.6,664.715l7.2,9.462.026.283.247-10.694-6.224-10.848,6.242,8.969-.065-22.156v-.074l0,.073.413,17.462,5.673-7.093-5.654,8.6.124,9.566,5.22-9.336-5.2,10.743.069,5.319,7.592-13-7.569,14.86Z" transform="translate(-58.272 -398.969)"/><path class="b" d="M1019.757,424.186l33.157-49.308-33.089,54.613.069,5.548q-3.631.028-7.191-.121l1.645-71.321-.045-.55.061-.106.157-6.739-36.31-52.719,36.268,47.675.129,1.424,1.242-53.886-31.363-54.658,31.452,45.192-.328-111.637v-.372l.011.365,2.082,87.985,28.584-35.74-28.49,43.319.624,48.2,26.3-47.041-26.206,54.127.347,26.8,38.251-65.528-38.135,74.877Z" transform="translate(-560.685 -143.548)"/><path class="a" d="M853.612,359.872s-7.683,20.59-2.766,39.029,17.824,62.385,17.824,62.385l17.21,34.112s9.834,6.761,15.673-7.068l-15.673-29.5,15.342-53.305a68.767,68.767,0,0,0,1.813-30.708c-.875-5.061-2.365-10.125-4.862-14.021C898.173,360.794,858.222,354.648,853.612,359.872Z" transform="translate(-489.429 -243.271)"/><path class="a" d="M883.376,580.776l-9.22,47.942s9.527,6.761,15.059,4.61l9.22-35.342Z" transform="translate(-503.212 -366.447)"/><path class="a" d="M845.992,685.811l-9.834,19.976-4,7.99s-21.82,20.9-4.61,18.746,18.439-5.224,18.439-5.224l3.381-4.917.922,1.844s4.917-4,4.917-5.224-1.844-13.829-1.844-13.829l2.458-14.751Z" transform="translate(-473.818 -424.462)"/><path class="a" d="M935.566,657.7l5.224,14.137-3.073,12.293s-11.985,16.288.307,15.366,14.444-9.834,14.444-9.834l1.844-5.839,1.537.615,4.61-8.3-8.6-13.829-5.839-10.141Z" transform="translate(-535.426 -405.882)"/><path class="d" d="M1004.936,400.913l1.844,9.527s7.683,17.21,0,17.824-7.683-16.9-7.683-16.9l.615-7.068Z" transform="translate(-572.221 -267.102)"/><path class="d" d="M677.2,280.744,666.445,278.9s-21.205-11.064-20.9-3.073S665.523,287.5,665.523,287.5l5.839,2.151Z" transform="translate(-376.94 -196.411)"/><circle class="d" cx="14.137" cy="14.137" r="14.137" transform="translate(368.486 11.191)"/><path class="d" d="M875.9,178.189s3.073,11.678-2.459,14.137-6.146,4.3-6.146,4.3,36.878,11.678,39.644-2.151l-12.6-7.068s-1.229-9.834-2.459-10.449S875.9,178.189,875.9,178.189Z" transform="translate(-499.42 -143.334)"/><path class="e" d="M824.759,222.718a3.688,3.688,0,0,0-1.592-2.252c-3.209-2.067-11.561-7.316-12.7-6.706-1.414.758-12.263,5.951-33.729-.64,0,0-16.242,4.472-20.852,7.545s-14.245,12.994-14.245,12.994-43.73,7.056-43.423,10.744-3.134,12.534-3.134,12.534,28.65,5.82,57.748-6.267c0,0,9.2,21.318,8.278,25.313s-.922,6.761,6.454,6.146,18.746-2.459,24.586-1.537,27.659,2.459,27.659.922v-9.527s6.761,33.19,11.063,33.19,10.965-2.594,13.731-12.428l-13.43-42.975Z" transform="translate(-404.303 -163.376)"/><rect class="f" width="66.245" height="1.343" transform="translate(378.982 215.921) rotate(-83.421)"/><path class="a" d="M851.686,16.46l-12.82-6.715-17.7,2.747L817.5,28.67l9.117-.351,2.547-5.943v5.845l4.208-.162,2.442-9.462L837.34,28.67l14.956-.305Z" transform="translate(-451.538 -5.383)"/><path class="g" d="M623.123,224.551a5.406,5.406,0,0,0-7.646,7.646l7.646,7.646,7.646-7.646a5.406,5.406,0,0,0-7.646-7.646Z" transform="translate(-359.458 -168.816)"/><path class="g" d="M668.123,164.551a5.406,5.406,0,1,0-7.646,7.646l7.646,7.646,7.646-7.646a5.406,5.406,0,1,0-7.646-7.646Z" transform="translate(-384.314 -135.675)"/><path class="g" d="M596.789,107.636a7.939,7.939,0,1,0-11.227,11.227l11.227,11.227,11.227-11.227a7.939,7.939,0,0,0-11.227-11.227Z" transform="translate(-342.525 -103.829)"/><rect class="b" width="202.342" height="179.064" transform="translate(30.691 112.362)"/><rect class="h" width="169.663" height="106.543" transform="translate(47.254 130.269)"/><path class="a" d="M311.02,539.162l.6-.188a38.691,38.691,0,0,0,26.81-38.306,38.172,38.172,0,0,0-2.355-11.849,38.635,38.635,0,1,0-48.638,49.954c.2.072.407.139.609.2h11.08Z" transform="translate(-164.645 -301.715)"/><path class="a" d="M260.818,509.531l-1.213,7.807-.031.2H247.7l.936-6.016.636-4.083Z" transform="translate(-136.813 -280.28)"/><path class="a" d="M312.3,522.886l.031-.188.694-3.827-11.55-2.091-1.07,5.918Z" transform="translate(-165.927 -285.439)"/><circle class="h" cx="13.203" cy="13.203" r="13.203" transform="translate(124.68 177.814)"/><circle class="b" cx="4.401" cy="4.401" r="4.401" transform="translate(138.908 181.883)"/><path class="c" d="M279.4,422.516c-.581-14.3,11.745-26.415,27.53-27.056s29.053,10.432,29.634,24.734-10.392,17.551-26.177,18.192S279.977,436.817,279.4,422.516Z" transform="translate(-174.691 -264.075)"/><ellipse class="a" cx="19.315" cy="6.064" rx="19.315" ry="6.064" transform="matrix(0.975, -0.223, 0.223, 0.975, 150.665, 191.833)"/><ellipse class="a" cx="19.315" cy="6.064" rx="19.315" ry="6.064" transform="matrix(0.975, -0.223, 0.223, 0.975, 74.837, 204.443)"/><path class="h" d="M323.616,578.153a8.8,8.8,0,1,0,17.322,3.136c.866-4.783-2.832-6.476-7.616-7.342S324.483,573.369,323.616,578.153Z" transform="translate(-199.048 -362.464)"/><rect class="i" width="103.857" height="6.267" transform="translate(47.254 252.928)"/><rect class="i" width="169.663" height="6.267" transform="translate(47.254 266.357)"/></g></svg>