<svg xmlns="http://www.w3.org/2000/svg" width="590.572" height="613.942" viewBox="0 0 590.572 613.942"><defs><style>.a{fill:#d0d0d0;}.b{fill:#dedede;}.c{fill:#f3f3f3;}.d{fill:#de8e68;}.e{fill:#dfdfdf;}.f{fill:#262625;}.g{fill:#fcc486;}.h{fill:#fed385;}.i{fill:#303030;}.j{fill:#fed892;}.k{fill:#3b3b3b;}</style></defs><g transform="translate(-387.701 -1174.399)"><rect class="a" width="256.848" height="385.536" rx="64.48" transform="matrix(0.983, -0.182, 0.182, 0.983, 415.128, 1409.247)"/><rect class="a" width="183.448" height="385.536" transform="matrix(0.983, -0.182, 0.182, 0.983, 415.13, 1409.243)"/><rect class="b" width="282.951" height="385.536" rx="64.48" transform="matrix(0.967, -0.253, 0.253, 0.967, 387.708, 1415.26)"/><rect class="b" width="202.088" height="385.536" transform="matrix(0.967, -0.253, 0.253, 0.967, 387.701, 1415.262)"/><rect class="c" width="26.972" height="386.191" transform="translate(589.96 1363.796) rotate(-14.452)"/><rect class="c" width="228.608" height="101.662" transform="matrix(0.967, -0.253, 0.253, 0.967, 428.379, 1454.88)"/><rect class="c" width="228.608" height="101.662" transform="matrix(0.967, -0.253, 0.253, 0.967, 428.379, 1454.88)"/><rect class="c" width="87.627" height="53.661" transform="matrix(0.967, -0.253, 0.253, 0.967, 485.964, 1711.902)"/><path class="d" d="M896.029,506.167c2.907,1.32,9.783,6.6,12.423,9.641,3.041-1.454,55.1-33.952,62.632-33.559s3.567,15.322,3.567,16.776-62.789,50.343-73.019,50.343S877.8,527.17,877.8,525.85,896.029,506.167,896.029,506.167Z" transform="translate(-39.924 848.82)"/><path class="e" d="M1010.342,348.374l-7.732-1.1L986.9,345.05l-2.224,15.715-66,466.42-4.1,28.978a15.856,15.856,0,0,0,13.476,17.915l7.74,1.1A15.857,15.857,0,0,0,953.7,861.695l4.1-28.97,66-466.42,2.224-15.715Z" transform="translate(-47.768 878.215)"/><path class="c" d="M1033.552,282.86l-26.872,48.866,39.13,5.54Z" transform="translate(-67.537 891.539)"/><path class="e" d="M1042.5,300.791l-4.039-17.931-8.855,16.1Z" transform="translate(-72.45 891.539)"/><rect class="c" width="39.523" height="14.191" transform="translate(871.504 1700.717) rotate(8.06)"/><rect class="d" width="19.047" height="11.48" transform="translate(808.214 1734.071)"/><rect class="d" width="17.459" height="11.48" transform="matrix(0.592, -0.806, 0.806, 0.592, 853.442, 1706.727)"/><path class="f" d="M745.739,683.048s-12.454,111.733-8.1,124.242,127.291,94.1,127.291,94.1l11.425-15.228-93.009-95.743c4.612-3.536,22.724-47.86,23.187-51.671s-13.413-62.86-13.413-62.86Z" transform="translate(-9.696 807.332)"/><path class="g" d="M844.375,482.035c9.916-15.306,48.716,16.422,49.753,23.07s-14.835,32.821-27.3,32.161S838.6,490.945,844.375,482.035Z" transform="translate(-32.499 849.749)"/><path class="h" d="M796.037,452.79c75.62,0,55.27,155.169,54.114,167.655-5.783,9.94-97.606,20.854-103.137,14.8C744.7,617.9,724.581,452.79,796.037,452.79Z" transform="translate(-10.971 855.131)"/><path class="d" d="M801.68,454.369c0,4.384,24.28,5.32,24.28,0V424.55H801.68Z" transform="translate(-23.615 861.182)"/><ellipse class="d" cx="21.749" cy="29.23" rx="21.749" ry="29.23" transform="translate(763.623 1252.322) rotate(-21.695)"/><ellipse class="d" cx="4.872" cy="6.977" rx="4.872" ry="6.977" transform="matrix(0.813, -0.582, 0.582, 0.813, 766.449, 1280.541)"/><path class="i" d="M771.13,391.1c0-4.054,3.78-8.51,4.495-13.6.369-2.577-.432-13.311,2.577-16.941,6.286-7.52,9.947-5.98,14.733-7.732,8.337-3.049,11.527-8.1,18.41-8.1,7.857,0,11,4.054,16.571,4.054,6.4,0,11.645-2.947,20.626-2.947,4.785,0,11.04,6.286,11.04,11.786,0,13.059-12.148,11.189-12.148,14.363,0,2.208.739,3.929.739,7,0,3.929-5.154,6.286-8.1,6.286-8.973,0-10.168-1.092-10.168-1.092a42.084,42.084,0,0,0-6.758-9.775c-.361-.377-6.192,3.74-15.715,4.062-7.8.259-13.3,1.768-13.3,5.4,0,2.569.943,10.215.888,12.336s-.786,3.536-1.3,3.536a8.567,8.567,0,0,0-3.748-.692c-3.214,0-3.465,3.929-4.015,3.929C782.736,402.954,771.13,400.337,771.13,391.1Z" transform="translate(-17.07 878.283)"/><path class="d" d="M748.7,535.494a7.794,7.794,0,0,0-2.915.566,1.03,1.03,0,0,0-.786-.416c-2.57,0-26.912-.9-29.481-.456,4.235-3.622,13.153-13,13.153-13L708.556,498.14c-4.534,1.666-37.347,34.785-37.347,46.878,0,11.2,14.214,12.855,24.5,12.855,12.737,0,32.569-3.206,43.216-6.286,1.037,5.783,5.021,10.1,9.783,10.1,5.555,0,10.057-5.854,10.057-13.075S754.256,535.494,748.7,535.494Z" transform="translate(4.338 845.415)"/><path class="j" d="M764.42,473.35c12.572,13.939-21.938,52.449-28.177,52.449s-27.957-22.606-25.592-36.647S757.073,465.226,764.42,473.35Z" transform="translate(-4.074 851.355)"/><path class="k" d="M861.591,666.16l-10.246,261H829.588L796.06,681.168" transform="translate(-22.411 809.416)"/><path d="M851.586,1006.07v17.043H801.62v-5.6l28.4-11.441Z" transform="translate(-23.602 736.59)"/><path d="M917.589,949.08l11.731,7.08-12.886,48.276-5.414-1.446-4.73-38.478Z" transform="translate(-46.028 748.8)"/></g></svg>