<svg xmlns="http://www.w3.org/2000/svg" width="590.572" height="628.943" viewBox="0 0 590.572 628.943"><defs><style>.a{fill:#f2f2f2;}.b{fill:none;stroke:#dedede;stroke-miterlimit:10;stroke-width:15px;}.c{fill:#de8e68;}.d{fill:#262625;}.e{fill:#2b76d9;}.f{fill:#3c8cf6;}.g{fill:#d37c59;}.h{fill:#fd8369;}.i{fill:#dedede;}</style></defs><path class="a" d="M476.677,109.671C510.7,153.678,516.374,215.926,519.7,273s4.441,108.848-9.242,170.724c-13.715,61.759-42.159,133.5-95.9,166.414-53.745,33.035-132.883,27.241-198.952-2.221C149.532,578.575,96.649,525.568,62.629,463.32c-33.9-62.372-48.938-133.836-20.338-180.71s100.7-69.028,153.835-109.58c53.248-40.558,87.517-99.476,135.965-116.117C380.408,40.154,442.656,65.788,476.677,109.671Z" transform="translate(-9.439 -17.948)"/><line class="b" x2="440.075" transform="translate(74.769 105.596)"/><line class="b" x2="18.424" transform="translate(0 105.596)"/><line class="b" x2="18.424" transform="translate(572.148 105.596)"/><path class="c" d="M337.166,374.88c-9.144-36.574-36.574-77.068-47.024-89.477s-38.534-76.414-63.352-109.723c-7.184,1.959-12.409,4.572-12.409,7.837s7.837,54.862,38.534,109.723C258.935,304,278.385,389.248,314.96,410.8,331.692,420.644,337.166,374.88,337.166,374.88Z" transform="translate(-74.365 -60.941)"/><path class="c" d="M500.38,374.88c9.144-36.574,36.574-77.068,47.024-89.477s38.534-76.414,63.352-109.723c7.184,1.959,12.409,4.572,12.409,7.837s-7.837,54.862-38.534,109.723C578.617,304,559.16,389.248,522.586,410.8,505.886,420.644,500.38,374.88,500.38,374.88Z" transform="translate(-173.575 -60.941)"/><circle class="c" cx="17.634" cy="17.634" r="17.634" transform="translate(427.385 87.961)"/><circle class="c" cx="17.634" cy="17.634" r="17.634" transform="translate(122.381 87.961)"/><path class="c" d="M409.546,436.68c-73.149,0-85.231,196.914-69.23,212.915s133.562,11.43,144.991,0S487.267,436.68,409.546,436.68Z" transform="translate(-115.893 -151.478)"/><circle class="c" cx="8.817" cy="8.817" r="8.817" transform="translate(256.269 221.197)"/><circle class="c" cx="8.817" cy="8.817" r="8.817" transform="translate(315.703 221.197)"/><path class="d" d="M476.87,521.664a59.172,59.172,0,0,1-37.339-73.149c-8.621-7.459-18.568-11.815-29.991-11.815-10.607,0-19.927,4.154-28.084,11.286a57.01,57.01,0,0,1-36.3,72.75c-13.97,55.658-13.715,120.016-4.866,128.879,16,16,133.562,11.43,144.991,0C491.656,643.28,491.552,578.21,476.87,521.664Z" transform="translate(-115.887 -151.485)"/><path class="e" d="M352.462,682.337c-2.325-5.649-51.211-74.677-126.7-74.677-8.138,0,41.068,123.439,41.068,134.489s93.617,27.431,105.994,27.431V681.6Z" transform="translate(-77.997 -210.788)"/><path class="f" d="M213.565,607.61c-7.635,0-13.755,8.425-13.755,19.273,0,58.486,77.159,184.178,82.835,184.178h31.082C293.728,744.287,285.283,607.61,213.565,607.61Z" transform="translate(-69.311 -210.771)"/><path class="e" d="M471.7,682.337c2.332-5.649,51.217-74.677,126.7-74.677,8.138,0-41.068,123.439-41.068,134.489s-93.624,27.431-106,27.431V681.6Z" transform="translate(-156.563 -210.788)"/><path class="f" d="M626.872,607.61c7.635,0,13.755,8.425,13.755,19.273,0,58.486-77.159,184.178-82.834,184.178H526.71C546.708,744.287,555.147,607.61,626.872,607.61Z" transform="translate(-182.708 -210.771)"/><path d="M334.84,947.762l1.045-28.672H304.8L263.69,939.474v8.288Z" transform="translate(-91.47 -318.819)"/><path d="M527.755,947.762,526.71,919.09h31.082L598.9,939.474v8.288Z" transform="translate(-182.708 -318.819)"/><path class="g" d="M458.423,444.4c0,8.491-30.043,8.491-30.043,0V398.68h30.043Z" transform="translate(-148.599 -138.296)"/><path class="h" d="M460,304.032c2.279.163,9.509-13.48,9.509-31.062,0-4.572-2.612-27.431-13.715-27.431-3.266,0-5.225,9.8-4.572,12.409,0-5.225-12.664-35.268-30.7-35.268-7.184,0-8.49,8.49-8.49,11.1,0,7.837.653,15.675,3.266,20.247-2.612-3.919-7.883-13.715-17.634-13.715-5.225,0-9.8,2.227-9.8,5.225,0,7.981,6.531,15.022,8.491,16.981-1.959-1.306-4.48-2.612-10.45-2.612-4.089,0-6.531,6.531-6.531,9.8,0,14.571,6.629,31.193,14.042,33.159s43.308-23.95,43.308-23.95S451.784,303.444,460,304.032Z" transform="translate(-131.601 -77.244)"/><ellipse class="c" cx="32.329" cy="39.513" rx="32.329" ry="39.513" transform="translate(262.474 189.521)"/><path class="h" d="M472.923,318.667c-3.795-.653-45.457-12.84-51.687-28.025s20.247-7.916,20.247-7.916L469,294.411Z" transform="translate(-145.791 -97.47)"/><rect class="i" width="32.401" height="211.198" transform="translate(42.361)"/><rect class="i" width="32.401" height="211.198" transform="translate(514.844)"/><rect class="i" width="22.441" height="122.302" transform="translate(17.902 44.451)"/><rect class="i" width="22.441" height="122.302" transform="translate(549.779 44.451)"/></svg>