<svg xmlns="http://www.w3.org/2000/svg" width="590.39" height="485.944" viewBox="0 0 590.39 485.944"><defs><style>.a{fill:#f8f8f8;}.b{fill:#74d5de;}.c,.e,.f,.o{fill:none;stroke-linecap:round;}.c{stroke:#56cad8;}.c,.f,.o{stroke-miterlimit:10;}.c,.e{stroke-width:4px;}.d{fill:#56cad8;}.e{stroke:#74d5de;stroke-linejoin:round;}.f{stroke:#6d6d6d;stroke-width:3px;}.g{fill:#fd8369;}.h{fill:#333;}.i{fill:#de8e68;}.j{fill:#fc6914;}.k{fill:#262625;}.l{fill:#3b3b3b;}.m{fill:#f25c05;}.n{fill:#373737;}.o{stroke:#333;stroke-width:7px;}</style></defs><g transform="translate(0 -0.023)"><g transform="translate(0 0.023)"><path class="a" d="M215.253,470.142c53.876-37.3,156.608-92.017,254.9-129.82q2.613-2.338,5.314-4.714c40.272-35.6,94.042-80.02,100.519-128.582,6.377-48.668-34.534-101.588-84.583-130.17C441.352,48.375,382.169,44.117,322.873,44s-118.7,3.832-148.255,36.034c-29.42,32.108-28.995,92.554-33.458,147.705s-13.916,105.095.425,151.85C153.306,418.066,181.219,454.525,215.253,470.142Z" transform="translate(-50.212 -16.506)"/><path class="b" d="M717.549,320.513c-5.22-1.788-22.3-24.381-22.3-51.194,0-31.151,32.952-90.116,36.084-111.121,1.994-13.36,10.99-131.057,79.307-131.057,37.253,0,40.36,72.837,40.36,105.414,0,76.1-110.652,140.922-110.652,180.451a169.1,169.1,0,0,1-22.8,7.508Z" transform="translate(-260.611 -10.188)"/><path class="c" d="M744.36,365.176c0-61.028,45.543-172.218,85.6-211.346" transform="translate(-279.02 -57.677)"/><path class="d" d="M315.9,601.938c-3.488-1.038-12.972-13.128-12.972-28.707,0-15,4.214-36.884,4.214-57.183,0-11.29-4.214-15.291-4.214-28.726,0-21.412,20.293-27.932,27.407-27.932,10.471,0,16.073,8.958,16.073,13.7,0,6.62-1.875,11.647-1.875,18.973,0,14.322,5,16.117,4.476,28.457-1.563,36.078-16.542,71.349-29.707,79.351Z" transform="translate(-113.552 -172.215)"/><path class="b" d="M202.35,540.523c4.276-3.688-19.667-120.342-40.435-140.985-22.593-22.437-41.166-34.315-47.3-41.679-10.878-13.059-17.8-62.309-65.685-62.309-12.666,0-42.511,10.471-47.881,54.789-1.757,14.547-4.951,36.8,25.325,69.055,20.393,21.73,45.9,14.247,70.83,37.791,17.948,16.948,15.435,42.511,32.2,64.11C142.81,538.548,177.625,561.822,202.35,540.523Z" transform="translate(0 -110.8)"/><path class="c" d="M236.747,583.747c0-29.276-92.354-161.409-129.307-180.307" transform="translate(-40.273 -151.242)"/><path class="e" d="M322.832,635.022c-.919-6.939-4.795-65.891,6.189-87.372" transform="translate(-120.482 -205.298)"/><path class="f" d="M207,654.687C234.638,615.221,481.531,480.575,629.849,455.7" transform="translate(-77.593 -170.831)"/><rect class="g" width="74.975" height="139.397" rx="12" transform="translate(275.5 70.584)"/><path class="h" d="M424.536,698.582v16.254H380.4v-6.877L407.744,695.4Z" transform="translate(-142.591 -260.682)"/><path class="h" d="M582.075,675.56c2.232,5,7.5,17.961,7.5,17.961l-22.024,13.847H547.6l-2.338-7.652,25.069-19.186Z" transform="translate(-204.388 -253.245)"/><ellipse class="i" cx="18.611" cy="23.468" rx="18.611" ry="23.468" transform="translate(282.789 20.534)"/><path class="i" d="M416.641,2.109C414.2-1.242,407.32-.485,401.269,3.872a21.155,21.155,0,0,0-5.726,6.045,1.676,1.676,0,0,0-.625-.144c-2.938,0-51.782,26.125-51.319,38.178s16.848,31.383,22.568,35.09c0,0,25.813-12.053,24.425-15.923s-16.254-16.254-18.861-18.7c3.063-1.6,27.582-25.894,30.351-28.645a20.768,20.768,0,0,0,8.033-3.632C416.154,11.774,419.085,5.5,416.641,2.109Z" transform="translate(-128.795 -0.023)"/><path class="j" d="M413.784,140.6c5.626-4.526-3.688-42.479-13.672-43.411s-27.394,17.879-26.694,23.218S399.568,151.979,413.784,140.6Z" transform="translate(-139.966 -36.433)"/><path class="k" d="M402.27,305.818c0,6.252,3.126,222.555,8.752,241.31,5,2.5,18.13,3.126,22.506,1.25s32.3-239.134,32.3-249.549S402.27,305.818,402.27,305.818Z" transform="translate(-150.789 -110.784)"/><path class="l" d="M527.763,540.7c-5.97-9.377-83.708-191.472-89.8-236.371,6.383-4.945,53.882-12.828,57.727-3.851S545.7,531.4,544.118,534.285,532.252,541.662,527.763,540.7Z" transform="translate(-164.167 -111.114)"/><path class="m" d="M449.074,119c40.323,0,37.822,111.59,29.07,118.467s-77.207,7.189-81.583,2.188S381.845,119,449.074,119Z" transform="translate(-147.412 -44.621)"/><path class="n" d="M494.051,39.334c0-4.757-4.545-8.19-4.545-10.828s1.557-7.364-1.926-10.746c-4.232-4.107-10.978-2.394-17.017-2.394-5.676,0-8.808-6.6-16.554-6.6-5.164,0-4.507,6.7-6.439,8.365-1.432,1.25-12.591,3.651-12.591,8.752,0,5.7.15,13.353,11.99,13.353.788-2.738,3.751-8.752,7.127-11.428,1.738.75,11.253,4.676,13.61,5.37s5.8,10.784,9.452,12,3.882,7.939,6.552,7.652S494.051,51.424,494.051,39.334Z" transform="translate(-163.05 -3.302)"/><circle class="i" cx="4.92" cy="4.92" r="4.92" transform="translate(312.502 40.933)"/><path class="i" d="M486.8,114.426c-.788,2.719-17.323-.581-17-3.657l2.826-27.319,19.924,4.289S487.6,111.72,486.8,114.426Z" transform="translate(-176.099 -31.295)"/><line class="o" x1="69.924" y2="346.63" transform="translate(353.406 97.785)"/><path class="i" d="M613.616,265.3a12.747,12.747,0,0,0-6.877-3.595c-8.34-13.46-36.678-54.945-49.175-70.017-9.009,6.47-20.005,17.786-20.005,17.786,4.595,5.151,39.01,45.868,57.32,61.834a12.447,12.447,0,0,0,3.751,8.983c4.632,4.639,11.747,5.039,15.885.906S618.249,269.941,613.616,265.3Z" transform="translate(-201.502 -71.869)"/><path class="j" d="M505.02,146.525c16.173-12.022,42.836,17.048,42.4,24.694s-20.93,24.6-27.938,24.619C510.922,195.85,491.254,156.759,505.02,146.525Z" transform="translate(-187.523 -53.861)"/></g></g></svg>