<svg xmlns="http://www.w3.org/2000/svg" width="591.58" height="413.542" viewBox="0 0 591.58 413.542"><defs><style>.a{fill:#ffe4ad;}.b{fill:#e0e0e0;}.c{fill:#fd8369;}.d{fill:#ffd98e;}.e,.f,.h,.l{fill:none;stroke-linecap:round;stroke-linejoin:round;stroke-width:2.38px;}.e{stroke:#fd8369;}.f{stroke:#ffd98e;}.g{fill:#c9c9c9;}.h{stroke:#c4c4c4;}.i{fill:#5fc5d1;}.j{fill:#35328c;}.k{fill:#e49d75;}.l{stroke:#d3d3d3;}.m{fill:#d3d3d3;}.n{fill:#6bd5e1;}.o{fill:#504da5;}</style></defs><g transform="translate(1.19 1.19)"><path class="a" d="M55.27,435.249c-3.851,0-4.784-4.2-9.629-4.2-3.017,0-9.331,1.717-9.331,4.659h0l3.179,22.251H57.062l3.658-24.6C60.272,434.751,58.238,435.249,55.27,435.249Z" transform="translate(-14.463 -163.652)"/><path class="b" d="M581.573,518.86c7.577-11.2,10.737-20.1,10.737-23.607,0-34.711-117.364-71.767-235.138-78.572C357.153,399.219,272.914,283,223.522,283c-35.134,0-59.232,22.394-59.232,74.025,0,65.366,25.778,120.636,62.523,161.835Z" transform="translate(-62.832 -107.698)"/><path class="c" d="M796.708,392.083c4.777,0,7.3-45.777,7.3-50.828s-10.923-52.875-44.036-52.875c-12.485,0-21.355,13.026-21.355,29.311,0,22.525,30.711,39.258,35.457,44.328C782.257,370.734,786.6,392.083,796.708,392.083Z" transform="translate(-279.895 -109.731)"/><path class="d" d="M834.976,402.226c-2.961,0-10.986-22.208-10.986-40.558,0-21.386,19.5-47.556,22.114-57,4.622-16.746,12.236-49.429,35.457-49.429,13.188,0,20.988,14.482,20.988,29.523,0,14.482-14.121,27.016-26.823,41.41-12.441,14.108-11,26-17.928,43.264C850.707,387.073,839.119,402.226,834.976,402.226Z" transform="translate(-312.16 -97.206)"/><path class="e" d="M840.915,409.426c-4.3-25.374,22.917-101.29,43.588-122.546" transform="translate(-318.385 -109.164)"/><path class="f" d="M783.75,317.51c4.162,3.434,28.409,43.849,30.22,63.326" transform="translate(-296.951 -120.74)"/><path class="g" d="M823.663,476.31h33.255L840.291,591.92H806.581L789.96,476.31h33.249" transform="translate(-299.299 -180.757)"/><path d="M376.1,243.63c0,52.8,16.174,52.545,16.174,60.215,0,15.072-7.533,13.312-7.533,13.312S307.153,309.593,376.1,243.63Z" transform="translate(-132.093 -92.818)"/><line class="h" y1="48.21" transform="translate(70.461)"/><line class="h" y1="48.21" transform="translate(383.624)"/><circle class="a" cx="10.637" cy="10.637" r="10.637" transform="translate(59.823 76.208)"/><circle class="a" cx="10.637" cy="10.637" r="10.637" transform="translate(372.987 76.208)"/><path class="i" d="M709.9,542.417c-4.05-7.054-150.538-52.185-167.421-52.875-31.725-5.375-52.608,11.95-60.3,27.06,29.542,6.637,64.694,16.348,73.646,20.036h2.19c1.244-.068,2.656-.081,4.28-.037,11.141-.131,20.435-.392,25.448-.69,15.216,5.673,114.322,27.6,116.761,26.276S711.695,545.54,709.9,542.417Z" transform="translate(-182.976 -185.38)"/><path class="j" d="M382.611,442.688c8.995.423,27.078,4.031,46.219,8.528,11.682-11.365,20.484-26.873,19.638-45.41-18.04-41.578-90.2-95.331-120.368-95.306-4.535,3.732-5.53,30.935-8.97,46.779-1.244,5.81,4.709,22.606,13.685,41.634C353.381,414.5,373.106,432.386,382.611,442.688Z" transform="translate(-121.291 -118.091)"/><path class="k" d="M842.614,582.15l12.858,3.3L851.516,598.4l-12.746-2.3Z" transform="translate(-317.746 -220.759)"/><path class="k" d="M357.061,297.679c-.236,3.011-.081,15.6,1.425,21.7C354.212,319.3,328.708,295.856,357.061,297.679Z" transform="translate(-130.7 -113.207)"/><ellipse class="k" cx="22.55" cy="29.548" rx="22.55" ry="29.548" transform="translate(197.84 128.517)"/><path d="M328.286,194.79c-29.4,0-41.056,42.555-41.056,65.938,0,20.957,7.869,26.568,11.458,28.285s12.646,2.034,18.425,3.434c7.4,1.8,11.421,8.591,18.264,8.591,5.312,0,8.441-5.157,8.441-9.331,0-16.914-28.3-31.1-28.3-56.271,5.424-1.866,25.728-16.653,25.728-22.537,0,3.994,10.388,14.842,12.143,15.614C354.164,225.968,349.915,194.79,328.286,194.79Z" transform="translate(-109.296 -74.359)"/><rect class="b" width="32.832" height="58.617" transform="translate(299.199 232.987) rotate(3.29)"/><path class="g" d="M564.158,406.423,541.72,423.748l3.365-58.523L567.523,347.9Z" transform="translate(-205.478 -132.226)"/><line class="l" x2="32.876" y2="5.076" transform="translate(301.226 229.285)"/><line class="l" x1="15.981" y2="19.732" transform="translate(335.644 214.629)"/><line class="l" x1="18.96" y2="17.467" transform="translate(336.944 216.358)"/><path class="k" d="M737.35,574.532l6.32,9.287,8.983-5.536-5.331-8.983Z" transform="translate(-279.415 -215.902)"/><path class="c" d="M89.7,78.69A40.762,40.762,0,0,0,48.94,119.447l81.527.006A40.764,40.764,0,0,0,89.7,78.69Z" transform="translate(-19.237 -30.48)"/><path class="c" d="M593.127,78.69a40.757,40.757,0,0,0-40.757,40.764h81.49A40.764,40.764,0,0,0,593.127,78.69Z" transform="translate(-209.504 -30.48)"/><line class="h" x2="124.934" transform="translate(0 295.553)"/><line class="h" y2="115.61" transform="translate(62.467 295.553)"/><rect class="e" width="28.453" height="15.539" transform="translate(66.871 278.77)"/><circle class="k" cx="5.872" cy="5.872" r="5.872" transform="translate(198.487 158.065)"/><path class="m" d="M537.079,434.273l-7.639,1.885,3.365-58.517,7.639-1.891Z" transform="translate(-200.837 -142.752)"/><path d="M744.65,587.709l4.641,12.833,38.9-9.872-1.481-7.508-31.588-2.252Z" transform="translate(-282.174 -220.29)"/><path d="M858.11,587.209l12.323,5.872,20.74-34.362-6.326-4.3-24.061,20.6Z" transform="translate(-325.055 -210.278)"/><path class="n" d="M576.353,365.57c-30.083,6.843-82.068,62.206-107.753,102.69,18.618,3.931,41.056,9.6,58.069,14.37,25.884-20.142,44.788-52.253,47.587-56.085,7.067,14.388,57.279,72.968,60.962,72.968s9.673-2.613,12.031-7.06C645.134,479.9,592.3,363.293,576.353,365.57Z" transform="translate(-177.843 -138.892)"/><path class="k" d="M347.658,445.722c23.309-2.121,68.545-10.432,72.414-11.253,4.865-1.026,9.281-16.211,5.008-25.2-1.474-2.65-3.11-2.718-4.354-2.426s-4.211,11.234-7.241,11.819-59.027,3.931-63.761,4.143c-.622-2.949-6.314-24.31-7.682-26S311,410.047,311,410.047a102.332,102.332,0,0,0,4.777,11.3C326.5,428.69,337.574,437.312,347.658,445.722Z" transform="translate(-118.28 -150.661)"/><path class="o" d="M298.709,325.66c9.729-3.446,31.619,8.8,38.138,43.513-3.732,5.219-24.26,16.628-36.185,16.46C295.449,381.024,278.013,332.963,298.709,325.66Z" transform="translate(-109.902 -123.609)"/><path class="e" d="M61.255,415.5l-5.437,36.583H38.245L33.02,415.5" transform="translate(-13.22 -157.775)"/></g></svg>